<?xml version="1.0" encoding="utf-8"?>
<!-- Generator: Adobe Illustrator 26.5.0, SVG Export Plug-In . SVG Version: 6.00 Build 0)  -->
<svg version="1.1" xmlns="http://www.w3.org/2000/svg" xmlns:xlink="http://www.w3.org/1999/xlink" x="0px" y="0px"
	 viewBox="0 0 595.28 841.89" style="enable-background:new 0 0 595.28 841.89;" xml:space="preserve">
<style type="text/css">
	.st0{fill:none;stroke:#0000FF;stroke-width:2.834646e-03;stroke-miterlimit:10;}
	.st1{fill:none;stroke:#0000FF;stroke-width:2.834646e-03;stroke-linecap:round;stroke-linejoin:round;stroke-miterlimit:10;}
	.st2{fill:none;stroke:#FF0000;stroke-width:2.834646e-03;stroke-miterlimit:10;}
	.st3{fill:none;stroke:#FF0000;stroke-width:2.834646e-03;stroke-linecap:round;stroke-linejoin:round;stroke-miterlimit:10;}
	
		.st4{fill-rule:evenodd;clip-rule:evenodd;fill:none;stroke:#FF0000;stroke-width:2.834646e-03;stroke-linecap:round;stroke-linejoin:round;stroke-miterlimit:10;}
</style>
<g id="カット2_x28_R0G0B255_x29_">
	<path id="スイッチプレート外形線_00000003800310943609090840000015021412416227565963_" class="st0" d="M296.46,205.86
		l6.49-19.39l-2.26-2.83l0-26.73l-14.22-11.44v-22.65l9.64,0l0-80.93v-2.83V27.72l8.5,0c2.21,2.21,3.46,3.46,5.67,5.67v5.67l26.69,0
		v-0.01l0-5.67c2.21-2.21,3.46-3.45,5.67-5.67l39.69,0v-0.01l0-5.67c2.21-2.21,3.46-3.45,5.67-5.67l56.69,0
		c2.21,2.21,3.46,3.45,5.67,5.67l0,5.67v0.01l39.69,0c2.21,2.21,3.46,3.45,5.67,5.67l0,5.67v0.01l39.69,0
		c2.21,2.21,3.46,3.46,5.67,5.67l0,147.41c-2.21,2.21-3.46,3.46-5.67,5.67l-51.02,0h-11.33l-18.86,0l2.23,21.18l0.56,5.32
		c-2.09,2.46-3.2,3.78-5.29,6.25c-61.27,3.52-126.62,22.87-179.92,53.29c-3.09-0.93-4.75-1.43-7.84-2.36l-2.43-4.77l-18.88-37.06
		c0.97-2.98,1.51-4.65,2.48-7.63L296.46,205.86z"/>
	<path class="st0" d="M231.12,19.54l-5.58,10.95l-21.63-11.81l-19.12,0c-1.11,1.11-1.73,1.73-2.83,2.83v18.8l0,24.48h-8.64V50.76
		h-2.93l-16.12,0l-11.15,0l0-7.94l11.15,0V21.52c-1.11-1.11-1.73-1.73-2.83-2.83l-123.22,0c-0.55,0.55-0.86,0.86-1.42,1.42l0,50.46
		l0,8.5c2.21,2.21,3.46,3.46,5.67,5.67h5.67l0,26.69h-0.01l-5.67,0c-2.21,2.21-3.45,3.46-5.67,5.67l0,39.69H26.8l-5.67,0
		c-2.21,2.21-3.45,3.46-5.67,5.67l0,56.69c2.21,2.21,3.45,3.46,5.67,5.67l5.67,0h0.01l0,39.69c2.21,2.21,3.45,3.46,5.67,5.67l5.67,0
		h0.01l0,39.69c2.21,2.21,3.46,3.46,5.67,5.67l147.41,0c2.21-2.21,3.46-3.46,5.67-5.67l0-51.02V247.5v-18.86l21.18,2.23l5.32,0.56
		c2.46-2.09,3.78-3.2,6.25-5.29c3.52-61.27,22.87-126.62,53.29-179.92c-0.93-3.09-1.43-4.75-2.36-7.84l-4.77-2.43l-37.06-18.88
		C235.77,18.03,234.1,18.58,231.12,19.54z"/>
	<path id="サイドプレート外形線_00000133510534532293984380000013067824005025267132_" class="st0" d="M230.98,374.9
		l10.8-2.13l-0.35-2l-4.5-3.89c-0.24-0.21-0.4-0.49-0.46-0.8l-6.57-33.37c-0.07-0.37,0-0.75,0.21-1.06l2.23-3.33
		c0.08-0.12,0.19-0.23,0.3-0.33c0.17-0.14,0.38-0.23,0.6-0.28l38.89-7.66l0.66-0.17l43.02-14.1l0.63-0.25l40.98-19.23l0.6-0.33
		l33.57-21.09c0.32-0.2,0.7-0.27,1.07-0.18l3.77,0.86l0.14,0.03c0.37,0.08,0.68,0.31,0.88,0.63l21.94,34.87l36.92-29l-4.38-5.57
		c-0.23-0.3-0.34-0.67-0.29-1.04l0.48-3.98c0.04-0.37,0.24-0.71,0.53-0.95l28.98-22.76c0.62-0.48,1.51-0.38,1.99,0.24l78.79,100.33
		c0.23,0.3,0.34,0.67,0.29,1.04l-0.48,3.98c-0.04,0.37-0.24,0.71-0.53,0.95l-32.33,25.39l4.38,5.57c0.23,0.3,0.34,0.67,0.29,1.04
		l-0.48,3.98c-0.04,0.37-0.24,0.71-0.53,0.95l-32.33,25.39l4.38,5.57c0.23,0.3,0.34,0.67,0.29,1.04l-0.17,1.44l-0.3,2.54
		c-0.04,0.37-0.24,0.71-0.53,0.95l-26.76,21.01c-0.3,0.23-0.67,0.34-1.04,0.29l-3.98-0.48c-0.37-0.04-0.71-0.24-0.95-0.53
		l-4.38-5.57l-32.33,25.39c-0.3,0.23-0.67,0.34-1.04,0.29l-1.04-0.12l-2.94-0.35c-0.37-0.04-0.71-0.24-0.95-0.53l-4.38-5.57
		l-42.16,33.11l6.13,7.8l1.75,2.23l7,8.92l6.69-5.25c0.37-3.11,0.58-4.85,0.96-7.96l-3.5-4.46l20.99-16.48l0,0.01l3.5,4.45
		c3.11,0.37,4.85,0.58,7.96,0.96l31.21-24.51l0,0.01l3.5,4.45c3.11,0.37,4.85,0.58,7.96,0.96l44.58-35.01
		c0.37-3.11,0.58-4.85,0.96-7.96l-3.5-4.46l0-0.01l31.21-24.51c0.37-3.11,0.58-4.85,0.96-7.96l-3.5-4.46l0-0.01l31.22-24.51
		c0.37-3.11,0.58-4.85,0.96-7.96L488.4,223.47c-3.11-0.37-4.85-0.58-7.96-0.96l-40.13,31.51l-8.91,7l-14.84,11.65l-11.33-18.03
		l-2.85-4.53c-3.16-0.65-4.86-1-8.02-1.64c-50.36,35.08-113.71,60.21-174.42,69.21c-1.86,2.64-2.85,4.05-4.71,6.69l1.03,5.25
		l8.04,40.81C226.92,372.18,228.38,373.16,230.98,374.9z"/>
	<path id="サイドプレート外形線_00000077284354035236405790000008633134223296966578_" class="st0" d="M515.29,321.99
		l-9.05,6.26l-1.19-1.64l0.35-5.94c0.02-0.32-0.07-0.63-0.25-0.89l-19.35-27.98c-0.21-0.31-0.54-0.52-0.91-0.59l-3.94-0.72
		c-0.15-0.03-0.3-0.03-0.44-0.01c-0.22,0.03-0.43,0.11-0.62,0.24l-32.6,22.55l-0.58,0.35l-40.09,21.02l-0.62,0.28l-42.35,15.98
		l-0.65,0.2l-38.52,9.37c-0.37,0.09-0.68,0.32-0.88,0.64l-2.01,3.3l-0.08,0.12c-0.2,0.32-0.26,0.71-0.17,1.07l9.71,40.03
		l-46.53,6.27l-0.95-7.02c-0.05-0.37-0.25-0.71-0.55-0.94l-3.19-2.43c-0.3-0.23-0.68-0.33-1.05-0.28l-36.52,4.92
		c-0.78,0.1-1.32,0.82-1.22,1.59l17.03,126.43c0.05,0.37,0.25,0.71,0.55,0.94l3.19,2.43c0.3,0.23,0.68,0.33,1.05,0.28l40.73-5.49
		l0.95,7.02c0.05,0.37,0.25,0.71,0.55,0.94l3.19,2.43c0.3,0.23,0.68,0.33,1.05,0.28l40.74-5.49l0.95,7.02
		c0.05,0.37,0.25,0.71,0.55,0.94l1.16,0.88l2.03,1.55c0.3,0.23,0.68,0.33,1.05,0.28l33.72-4.54c0.37-0.05,0.71-0.25,0.94-0.54
		l2.43-3.19c0.23-0.3,0.33-0.68,0.28-1.05l-0.94-7.03l40.74-5.49c0.37-0.05,0.71-0.25,0.94-0.54l0.63-0.83l1.8-2.36
		c0.23-0.3,0.33-0.68,0.28-1.05l-0.94-7.03l53.13-7.15l1.32,9.83l0.38,2.81l1.51,11.24l-8.43,1.13c-2.49-1.9-3.89-2.96-6.38-4.86
		l-0.76-5.62l-26.45,3.56l0,0.01l0.75,5.62c-1.9,2.49-2.96,3.88-4.86,6.37l-39.33,5.3l0,0.01l0.75,5.62
		c-1.9,2.49-2.96,3.88-4.86,6.37l-56.18,7.57c-2.49-1.9-3.89-2.96-6.37-4.86l-0.76-5.62l0-0.01l-39.33,5.3
		c-2.49-1.9-3.89-2.96-6.37-4.86l-0.76-5.62l0-0.01l-39.34,5.3c-2.49-1.9-3.89-2.96-6.38-4.86l-19.67-146.09
		c1.9-2.49,2.96-3.89,4.86-6.38l50.57-6.81l11.23-1.51l18.69-2.52l-5.03-20.69l-1.26-5.2c1.74-2.72,2.67-4.18,4.41-6.9
		c60.25-11.66,122.44-39.57,171.2-76.83c3.19,0.51,4.9,0.78,8.08,1.29l3.04,4.4l23.66,34.21
		C516.17,317.18,515.85,318.91,515.29,321.99z"/>
	<polygon id="ProMicroプレート外形線_00000178202443016371513010000012802728680710432910_" class="st1" points="
		170.34,339.89 35.96,380.25 22.91,389.46 14.81,434.1 38.92,439.19 208.54,388.24 191.17,330.41 184.11,326.61 178.68,328.24 	"/>
	<polygon id="ProMicroプレート外形線_00000014610561378645593320000017839297075340276131_" class="st1" points="
		203.84,463.07 69.83,504.65 53.86,504.3 22.21,471.8 39.37,454.11 208.52,401.63 226.41,459.29 222.68,466.39 217.26,468.07 	"/>
	<polygon id="ProMicroプレート外形線_00000017516000022920366510000006626712730038601657_" class="st1" points="
		519.53,595.89 519.53,455.58 524.6,440.43 565.01,419.84 576.82,441.46 576.82,618.57 516.45,618.57 510.78,612.9 510.78,607.23 	
		"/>
	<path id="スイッチプレート外形線_00000150080034315571368520000016628934315727852679_" class="st0" d="M316.62,644.24
		l7.87,18.87l-2.05,2.99l1.92,26.66L311,705.2l1.63,22.59l9.61-0.69l5.82,80.72l0.2,2.83l0.82,11.31l8.48-0.61
		c2.05-2.37,3.2-3.69,5.25-6.06l-0.41-5.66l26.62-1.92l0,0.01l0.41,5.65c2.37,2.05,3.7,3.2,6.06,5.24l39.59-2.86l0,0.01l0.41,5.65
		c2.37,2.05,3.7,3.2,6.06,5.24l56.54-4.08c2.05-2.37,3.2-3.69,5.25-6.06l-0.4-5.65l0-0.01l39.58-2.86c2.05-2.37,3.2-3.69,5.25-6.06
		l-0.4-5.65l0-0.01l39.59-2.86c2.05-2.37,3.2-3.7,5.25-6.06l-10.61-147.03c-2.37-2.05-3.69-3.2-6.06-5.25l-50.89,3.67l-11.3,0.82
		l-18.81,1.36l0.7-21.28l0.17-5.35c-2.26-2.31-3.47-3.54-5.73-5.85c-61.36,0.9-127.94-13.7-183.29-40.21
		c-3.02,1.15-4.63,1.77-7.65,2.91l-2.08,4.93l-16.17,38.33c1.18,2.9,1.84,4.53,3.02,7.43L316.62,644.24z"/>
	<path class="st0" d="M236.87,817.68l-5.58-10.95l-21.63,11.81h-19.12c-1.11-1.11-1.73-1.73-2.83-2.83l0-18.8v-24.48h-8.64v14.03
		h-2.93l-16.12,0h-11.15v7.94h11.15l0,21.31c-1.11,1.11-1.73,1.73-2.83,2.83H33.97c-0.55-0.55-0.86-0.86-1.42-1.42l0-50.46l0-8.5
		c2.21-2.21,3.46-3.46,5.67-5.67h5.67l0-26.69h-0.01l-5.67,0c-2.21-2.21-3.45-3.46-5.67-5.67l0-39.69h-0.01l-5.67,0
		c-2.21-2.21-3.45-3.46-5.67-5.67l0-56.69c2.21-2.21,3.45-3.46,5.67-5.67l5.67,0h0.01l0-39.69c2.21-2.21,3.45-3.46,5.67-5.67l5.67,0
		h0.01l0-39.69c2.21-2.21,3.46-3.46,5.67-5.67l147.41,0c2.21,2.21,3.46,3.46,5.67,5.67l0,51.02l0,11.33v18.86l21.18-2.23l5.32-0.56
		c2.46,2.09,3.78,3.2,6.25,5.29c3.52,61.27,22.87,126.62,53.29,179.92c-0.93,3.09-1.43,4.75-2.36,7.84l-4.77,2.43l-37.06,18.88
		C241.52,819.19,239.85,818.65,236.87,817.68z"/>
	<polygon id="ProMicroプレート外形線_00000067953840850785338390000003540217143724740285_" class="st1" points="
		357.33,474.18 473.49,395.48 483.19,382.79 477.57,337.77 453.04,340.13 306.41,439.46 340.28,489.45 348.15,490.96 352.85,487.78 
			"/>
</g>
<g id="カット1_x28_R255G0B0_x29_">
	<g id="サイドプレート_00000122684712534141950070000004758207278249783481_">
		<g id="ネジ穴_00000103255821445266103730000003994578178199320763_">
			<circle class="st2" cx="515.65" cy="416.54" r="2.83"/>
			<circle class="st2" cx="473.35" cy="449.76" r="2.83"/>
			<circle class="st2" cx="573" cy="342.67" r="2.83"/>
			<circle class="st2" cx="483.7" cy="228.96" r="2.83"/>
			<circle class="st2" cx="396.98" cy="254.83" r="2.83"/>
			<circle class="st2" cx="222.39" cy="323.78" r="2.83"/>
			<circle class="st2" cx="230.63" cy="365.8" r="2.83"/>
			<circle class="st2" cx="398.48" cy="494.13" r="2.83"/>
		</g>
	</g>
	<g id="スイッチプレート_00000031912207469095126670000013433967926905398168_">
		<path class="st3" d="M515.01,743.17l39.58-2.86l2.86,39.58l-39.58,2.86L515.01,743.17z"/>
		<path class="st3" d="M470.59,757.74l39.58-2.86l2.86,39.58l-39.58,2.86L470.59,757.74z"/>
		<path class="st3" d="M426.16,772.32l39.58-2.86l2.86,39.58l-39.58,2.86L426.16,772.32z"/>
		<path class="st3" d="M380.1,764.27l39.58-2.86l2.86,39.58l-39.58,2.86L380.1,764.27z"/>
		<path class="st3" d="M334.04,756.22l39.58-2.86l2.86,39.58l-39.58,2.86L334.04,756.22z"/>
		<path class="st3" d="M511.75,697.92l39.58-2.86l2.86,39.58l-39.58,2.86L511.75,697.92z"/>
		<path class="st3" d="M467.32,712.5l39.58-2.86l2.86,39.58l-39.58,2.86L467.32,712.5z"/>
		<path class="st3" d="M422.9,727.07l39.58-2.86l2.86,39.58l-39.58,2.86L422.9,727.07z"/>
		<path class="st3" d="M376.84,719.03l39.58-2.86l2.86,39.58l-39.58,2.86L376.84,719.03z"/>
		<path class="st3" d="M330.78,710.98l39.58-2.86l2.86,39.58l-39.58,2.86L330.78,710.98z"/>
		<path class="st3" d="M508.49,652.68l39.58-2.86l2.86,39.58l-39.58,2.86L508.49,652.68z"/>
		<path class="st3" d="M464.06,667.26l39.58-2.86l2.86,39.58l-39.58,2.86L464.06,667.26z"/>
		<path class="st3" d="M419.63,681.83l39.58-2.86l2.86,39.58l-39.58,2.86L419.63,681.83z"/>
		<path class="st3" d="M373.58,673.78l39.58-2.86l2.86,39.58l-39.58,2.86L373.58,673.78z"/>
		<path class="st3" d="M327.52,665.74l39.58-2.86l2.86,39.58l-39.58,2.86L327.52,665.74z"/>
		<path class="st3" d="M421.3,620.71l39.66,1.3l-1.3,39.66l-39.66-1.3L421.3,620.71z"/>
		<path class="st3" d="M375.69,613.99l39.21,6.12l-6.12,39.21l-39.21-6.12L375.69,613.99z"/>
		<path class="st3" d="M331.24,601.76l38.17,10.85l-10.85,38.17l-38.17-10.85L331.24,601.76z"/>
		<path class="st3" d="M288.61,584.2l36.56,15.43l-15.43,36.56l-36.56-15.43L288.61,584.2z"/>
		<g id="ネジ穴_00000148647748407152704970000009417864909580035976_">
			<circle class="st3" cx="318.97" cy="711.87" r="2.83"/>
			<circle class="st2" cx="476.18" cy="815.6" r="2.83"/>
			<circle class="st2" cx="422.53" cy="819.47" r="2.83"/>
			<circle class="st2" cx="565.03" cy="786.45" r="2.83"/>
			<circle class="st2" cx="554.63" cy="642.25" r="2.83"/>
			<circle class="st2" cx="468.27" cy="615.17" r="2.83"/>
			<circle class="st2" cx="284.99" cy="574.66" r="2.83"/>
			<circle class="st2" cx="268.31" cy="614.1" r="2.83"/>
			<circle class="st2" cx="335.65" cy="814.37" r="2.83"/>
		</g>
	</g>
	<g id="PMスリットプレート_00000019652345082438111550000005228317423324266169_">
		<g id="OLED穴_00000148647597267985671010000013264976688083570352_">
			<g>
				<polygon class="st3" points="183.22,384.3 187.53,383 152.22,364.01 147.92,365.3 				"/>
				<polygon class="st3" points="191.36,381.85 194.19,381 193.75,379.52 160.37,361.56 156.06,362.86 				"/>
				<polygon class="st3" points="187.7,359.39 186.04,353.85 180.5,355.52 				"/>
				<polygon class="st3" points="126.21,401.42 130.51,400.13 121.53,395.29 122.82,399.6 				"/>
				<polygon class="st3" points="134.35,398.97 138.66,397.68 119.08,387.15 120.38,391.45 				"/>
				<polygon class="st3" points="142.5,396.53 146.8,395.23 116.64,379 117.93,383.31 				"/>
				<polygon class="st3" points="150.64,394.08 154.95,392.79 119.64,373.79 115.45,375.05 115.48,375.16 				"/>
				<polygon class="st3" points="158.79,391.64 163.09,390.34 127.79,371.35 123.48,372.64 				"/>
				<polygon class="st3" points="166.93,389.19 171.24,387.9 135.93,368.9 131.63,370.19 				"/>
				<polygon class="st3" points="175.08,386.74 179.38,385.45 144.08,366.46 139.77,367.75 				"/>
				<polygon class="st3" points="192.59,375.68 191.3,371.38 168.51,359.12 164.21,360.41 				"/>
				<polygon class="st3" points="190.15,367.54 188.85,363.23 176.66,356.67 172.35,357.96 				"/>
			</g>
		</g>
		<g id="ネジ穴_00000148630753271499109710000014786877350987734165_">
			<circle class="st3" cx="88.4" cy="372.42" r="2.83"/>
			<circle class="st3" cx="48.55" cy="424.99" r="2.83"/>
			<circle class="st2" cx="184.79" cy="333.81" r="2.83"/>
		</g>
	</g>
	<g id="PMプレート_00000111887457893673034070000001306474089506409612_">
		<g id="ネジ穴_00000049900942727995716070000017421005353623063176_">
			<circle class="st3" cx="425.79" cy="418.63" r="2.83"/>
			<circle class="st3" cx="448.1" cy="356.56" r="2.83"/>
			<circle class="st2" cx="345.35" cy="484.3" r="2.83"/>
		</g>
	</g>
	<g id="サイドプレート_x5F_右_00000134226699737372915890000000836107191013567917_">
		<g id="ネジ穴_00000062178413706607964900000014756604235817431173_">
			<circle class="st2" cx="346.72" cy="555.14" r="2.83"/>
			<circle class="st2" cx="400.03" cy="547.96" r="2.83"/>
			<circle class="st2" cx="253.79" cy="544.77" r="2.83"/>
			<circle class="st2" cx="234.49" cy="401.48" r="2.83"/>
			<circle class="st2" cx="313.48" cy="357.32" r="2.83"/>
			<circle class="st2" cx="484.61" cy="280.2" r="2.83"/>
			<circle class="st2" cx="509" cy="315.4" r="2.83"/>
			<circle class="st2" cx="484.03" cy="525.2" r="2.83"/>
		</g>
	</g>
	<g id="スイッチプレート_x5F_右_00000165953747953233389100000017394894696767020460_">
		<path class="st3" d="M487.22,53.23l39.69,0v39.69l-39.69,0V53.23z"/>
		<path class="st3" d="M441.86,41.89l39.69,0l0,39.69l-39.69,0L441.86,41.89z"/>
		<path class="st3" d="M396.5,30.55l39.69,0l0,39.69l-39.69,0V30.55z"/>
		<path class="st3" d="M351.14,41.89l39.69,0l0,39.69l-39.69,0V41.89z"/>
		<path class="st3" d="M305.78,53.23l39.69,0v39.69l-39.69,0V53.23z"/>
		<path class="st3" d="M487.22,98.59l39.68,0l0,39.69l-39.69,0V98.59z"/>
		<path class="st3" d="M441.86,87.25l39.69,0l0,39.69l-39.69,0L441.86,87.25z"/>
		<path class="st3" d="M396.5,75.91l39.69,0v39.69l-39.69,0V75.91z"/>
		<path class="st3" d="M351.14,87.25l39.69,0v39.69l-39.69,0L351.14,87.25z"/>
		<path class="st3" d="M305.78,98.59l39.69,0v39.69l-39.69,0L305.78,98.59z"/>
		<path class="st3" d="M487.22,143.95l39.69,0v39.69l-39.69,0L487.22,143.95z"/>
		<path class="st3" d="M441.86,132.61l39.69,0l0,39.69l-39.69,0L441.86,132.61z"/>
		<path class="st3" d="M396.5,121.27l39.69,0v39.69l-39.69,0L396.5,121.27z"/>
		<path class="st3" d="M351.14,132.61l39.69,0v39.69l-39.69,0L351.14,132.61z"/>
		<path class="st3" d="M305.78,143.95l39.69,0l0,39.69l-39.69,0L305.78,143.95z"/>
		<path class="st3" d="M398.41,182.33l39.47-4.15l4.15,39.47l-39.47,4.15L398.41,182.33z"/>
		<path class="st3" d="M348.62,193.12l38.67-8.93l8.93,38.67l-38.67,8.93L348.62,193.12z"/>
		<path class="st3" d="M300.52,209.89l37.29-13.57l13.57,37.29l-37.29,13.57L300.52,209.89z"/>
		<path class="st3" d="M254.82,232.4l35.36-18.02l18.02,35.36l-35.36,18.02L254.82,232.4z"/>
		<g id="ネジ穴_00000017474499073568437400000008443790687718037175_">
			<circle class="st3" cx="293.94" cy="138.24" r="2.83"/>
			<circle class="st2" cx="443.27" cy="23.47" r="2.83"/>
			<circle class="st2" cx="389.48" cy="23.47" r="2.83"/>
			<circle class="st2" cx="533.99" cy="46.15" r="2.83"/>
			<circle class="st2" cx="533.99" cy="190.73" r="2.83"/>
			<circle class="st2" cx="449.81" cy="223.95" r="2.83"/>
			<circle class="st2" cx="269.92" cy="277.55" r="2.83"/>
			<circle class="st2" cx="250.45" cy="239.41" r="2.83"/>
			<circle class="st2" cx="303.19" cy="34.81" r="2.83"/>
		</g>
	</g>
	<g id="PMスリットプレート_x5F_右_00000013883727318414072560000000294547610378323116_">
		<g id="OLED穴_00000058558374603044027540000003986539004145647744_">
			<g>
				<polygon class="st3" points="565.76,595.45 565.76,599.95 537.42,571.6 537.42,567.11 				"/>
				<polygon class="st3" points="565.76,603.96 565.76,606.91 564.22,606.91 537.42,580.11 537.42,575.61 				"/>
				<polygon class="st3" points="543.2,606.91 537.42,606.91 537.42,601.12 				"/>
				<polygon class="st3" points="565.76,535.93 565.76,540.42 558.55,533.21 563.05,533.21 				"/>
				<polygon class="st3" points="565.76,544.43 565.76,548.92 550.05,533.21 554.54,533.21 				"/>
				<polygon class="st3" points="565.76,552.93 565.76,557.43 541.54,533.21 546.04,533.21 				"/>
				<polygon class="st3" points="565.76,561.44 565.76,565.93 537.42,537.59 537.42,533.21 537.53,533.21 				"/>
				<polygon class="st3" points="565.76,569.94 565.76,574.44 537.42,546.09 537.42,541.59 				"/>
				<polygon class="st3" points="565.76,578.44 565.76,582.94 537.42,554.59 537.42,550.1 				"/>
				<polygon class="st3" points="565.76,586.95 565.76,591.44 537.42,563.1 537.42,558.6 				"/>
				<polygon class="st3" points="560.21,606.91 555.72,606.91 537.42,588.61 537.42,584.11 				"/>
				<polygon class="st3" points="551.71,606.91 547.21,606.91 537.42,597.11 537.42,592.62 				"/>
			</g>
		</g>
		<g id="ネジ穴_00000014634780293075747310000016912375050476348547_">
			<circle class="st3" cx="527.11" cy="508.05" r="2.83"/>
			<circle class="st3" cx="566" cy="454.77" r="2.83"/>
			<circle class="st2" cx="517.86" cy="611.48" r="2.83"/>
		</g>
	</g>
	<g id="PMプレート_x5F_右_00000176017359419815608120000001438159665988894387_">
		<g id="ネジ穴_00000146494434911031156870000014154949428539042204_">
			<circle class="st3" cx="117.7" cy="481.85" r="2.83"/>
			<circle class="st3" cx="55.29" cy="460.51" r="2.83"/>
			<circle class="st2" cx="219.23" cy="460.04" r="2.83"/>
		</g>
	</g>
	<g id="Rev3ボトムプレート_00000067929714662599500970000008380052316221916340_">
		<path class="st2" d="M206.59,55.88c0,0.37-0.08,0.74-0.26,1.09l-1.03,2.02c-0.6,1.19-2.06,1.66-3.24,1.05
			c-1.19-0.6-1.65-2.06-1.05-3.24l1.03-2.02c0.6-1.19,2.06-1.66,3.24-1.05C206.11,54.16,206.59,55,206.59,55.88z"/>
		<path class="st2" d="M200.4,52.73c0,0.37-0.08,0.74-0.26,1.09l-1.03,2.02c-0.6,1.19-2.06,1.66-3.24,1.05
			c-1.19-0.6-1.66-2.05-1.05-3.24l1.03-2.02c0.6-1.19,2.06-1.66,3.24-1.05C199.92,51,200.4,51.85,200.4,52.73z"/>
		<path class="st2" d="M206.92,29.01c0,0.37-0.08,0.74-0.26,1.09l-1.03,2.02c-0.6,1.19-2.06,1.66-3.24,1.05
			c-1.18-0.6-1.66-2.05-1.05-3.24l1.03-2.02c0.6-1.19,2.06-1.66,3.24-1.05C206.44,27.28,206.92,28.13,206.92,29.01z"/>
		<path class="st2" d="M221.95,36.66c0,0.37-0.08,0.74-0.26,1.09l-1.03,2.02c-0.6,1.19-2.06,1.66-3.24,1.05
			c-1.18-0.6-1.66-2.05-1.05-3.24l1.03-2.02c0.6-1.19,2.06-1.66,3.24-1.05C221.47,34.94,221.95,35.78,221.95,36.66z"/>
		<path class="st2" d="M203.06,36.58c0,0.37-0.08,0.74-0.26,1.09l-1.03,2.02c-0.6,1.19-2.05,1.66-3.24,1.05
			c-1.19-0.6-1.66-2.05-1.05-3.24l1.03-2.02c0.6-1.19,2.05-1.66,3.24-1.05C202.58,34.86,203.06,35.7,203.06,36.58z"/>
		<path class="st2" d="M218.09,44.24c0,0.37-0.08,0.74-0.26,1.09l-1.03,2.02c-0.6,1.19-2.06,1.66-3.24,1.05
			c-1.19-0.6-1.65-2.06-1.05-3.24l1.03-2.02c0.6-1.19,2.06-1.66,3.24-1.05C217.61,42.52,218.09,43.36,218.09,44.24z"/>
		<path class="st2" d="M212.94,54.34c0,0.37-0.08,0.74-0.26,1.09l-1.03,2.02c-0.6,1.19-2.06,1.66-3.24,1.05
			c-1.18-0.6-1.66-2.06-1.05-3.24l1.03-2.02c0.6-1.19,2.06-1.66,3.24-1.05C212.46,52.62,212.94,53.46,212.94,54.34z"/>
		<path class="st2" d="M197.91,46.69c0,0.37-0.08,0.74-0.26,1.09l-1.03,2.02c-0.6,1.19-2.06,1.66-3.24,1.05
			c-1.18-0.6-1.66-2.05-1.05-3.24l1.03-2.02c0.6-1.19,2.06-1.66,3.24-1.05C197.43,44.96,197.91,45.81,197.91,46.69z"/>
		<circle class="st3" cx="202.61" cy="45.85" r="1.7"/>
		<circle class="st3" cx="216.04" cy="30.42" r="1.7"/>
		<circle class="st3" cx="211.62" cy="28.17" r="1.7"/>
		<circle class="st3" cx="207.03" cy="48.1" r="1.7"/>
		
			<rect x="147.05" y="61" transform="matrix(3.464551e-07 -1 1 3.464551e-07 88.8845 222.9994)" class="st3" width="17.79" height="12.12"/>
		<g>
			<circle class="st3" cx="193.11" cy="63.74" r="2.13"/>
			<circle class="st3" cx="188.98" cy="69.64" r="2.13"/>
			<circle class="st3" cx="138.33" cy="29.78" r="2.13"/>
		</g>
		<g>
			<g>
				<circle class="st3" cx="125.66" cy="54.71" r="1.98"/>
			</g>
			<g>
				<circle class="st3" cx="125.66" cy="47.51" r="1.98"/>
			</g>
			<g>
				<circle class="st3" cx="125.66" cy="40.31" r="1.98"/>
			</g>
			<g>
				<circle class="st3" cx="125.66" cy="33.11" r="1.98"/>
			</g>
			<g>
				<circle class="st3" cx="37.64" cy="22.34" r="2.16"/>
			</g>
			<g>
				<circle class="st3" cx="44.84" cy="22.34" r="2.16"/>
			</g>
			<g>
				<circle class="st3" cx="52.04" cy="22.34" r="2.16"/>
			</g>
			<g>
				<circle class="st3" cx="59.24" cy="22.34" r="2.16"/>
			</g>
			<g>
				<circle class="st3" cx="66.44" cy="22.34" r="2.16"/>
			</g>
			<g>
				<circle class="st3" cx="73.64" cy="22.34" r="2.16"/>
			</g>
			<g>
				<circle class="st3" cx="80.84" cy="22.34" r="2.16"/>
			</g>
			<g>
				<circle class="st3" cx="88.04" cy="22.34" r="2.16"/>
			</g>
			<g>
				<circle class="st3" cx="95.24" cy="22.34" r="2.16"/>
			</g>
			<g>
				<circle class="st3" cx="102.44" cy="22.34" r="2.16"/>
			</g>
			<g>
				<circle class="st3" cx="109.64" cy="22.34" r="2.16"/>
			</g>
			<g>
				<circle class="st3" cx="116.84" cy="22.34" r="2.16"/>
			</g>
			<g>
				<circle class="st3" cx="116.84" cy="65.48" r="2.16"/>
			</g>
			<g>
				<circle class="st3" cx="109.64" cy="65.48" r="2.16"/>
			</g>
			<g>
				<circle class="st3" cx="102.44" cy="65.48" r="2.16"/>
			</g>
			<g>
				<circle class="st3" cx="95.24" cy="65.48" r="2.16"/>
			</g>
			<g>
				<circle class="st3" cx="88.04" cy="65.48" r="2.16"/>
			</g>
			<g>
				<circle class="st3" cx="80.84" cy="65.48" r="2.16"/>
			</g>
			<g>
				<circle class="st3" cx="73.64" cy="65.48" r="2.16"/>
			</g>
			<g>
				<circle class="st3" cx="66.44" cy="65.48" r="2.16"/>
			</g>
			<g>
				<circle class="st3" cx="59.24" cy="65.48" r="2.16"/>
			</g>
			<g>
				<circle class="st3" cx="52.04" cy="65.48" r="2.16"/>
			</g>
			<g>
				<circle class="st3" cx="44.84" cy="65.48" r="2.16"/>
			</g>
			<g>
				<circle class="st3" cx="37.64" cy="65.48" r="2.16"/>
			</g>
			<g>
				<path class="st4" d="M32.6,67.64h-4.32l0-4.32h4.32L32.6,67.64z"/>
				<circle class="st3" cx="30.44" cy="22.34" r="2.16"/>
			</g>
		</g>
		<g id="ボトムプレート穴_00000037666084448156903330000010113638697224491165_">
			
				<rect x="212.03" y="60.25" transform="matrix(0.3584 -0.9336 0.9336 0.3584 71.4692 246.532)" class="st3" width="6.12" height="22.04"/>
			<path class="st3" d="M143.27,303.87v-19.35c0.51,0.72,1.26,1.25,2.15,1.44c-0.3,0.52-0.48,1.12-0.48,1.77v1.69
				c0,1.96,1.59,3.55,3.55,3.55c0.16,0,0.32-0.03,0.48-0.05c-0.21,0.29-0.38,0.62-0.5,0.96c-0.12,0.35-0.18,0.72-0.18,1.11v1.69
				c0,1.96,1.59,3.55,3.55,3.55c1.91,0,3.46-1.52,3.54-3.41c0.1,0.01,0.21,0.03,0.31,0.03h4.36v0.55c0,1.57,1.27,2.84,2.84,2.84
				c0.77,0,1.47-0.31,1.98-0.81v2.07h22.68v-22.68h-18.73c-1.03-2.25-3.29-3.82-5.93-3.82c-3.6,0-6.52,2.92-6.52,6.52
				c0,3.6,2.92,6.52,6.52,6.52c0.69,0,1.36-0.11,1.98-0.31v4.96c-0.51-0.5-1.21-0.81-1.98-0.81h-3.65v-0.26
				c0-1.96-1.59-3.55-3.55-3.55c-1,0-1.9,0.42-2.54,1.09v-15.27c0.64,0.67,1.54,1.09,2.54,1.09c1.96,0,3.55-1.59,3.55-3.55v-0.26
				h3.65c1.57,0,2.84-1.27,2.84-2.84v-2.69c0-1.57-1.27-2.84-2.84-2.84s-2.84,1.27-2.84,2.84v0.55h-4.36
				c-0.11,0-0.21,0.02-0.31,0.03c-0.07-1.9-1.62-3.41-3.54-3.41c-1.96,0-3.55,1.59-3.55,3.55v1.69c0,0.35,0.06,0.68,0.15,1
				c0.01,0.04,0.02,0.07,0.03,0.11c0.12,0.35,0.29,0.67,0.5,0.96c-0.16-0.02-0.31-0.05-0.48-0.05c-1.96,0-3.55,1.59-3.55,3.55v1.69
				c0,0.65,0.18,1.25,0.48,1.77c-0.89,0.19-1.64,0.72-2.15,1.44l0-19.35h-6.13l0,44.72H143.27z"/>
			<path class="st3" d="M131.93,258.51v-19.35c0.51,0.72,1.26,1.25,2.15,1.44c-0.3,0.52-0.48,1.12-0.48,1.77v1.69
				c0,1.96,1.59,3.55,3.55,3.55c0.16,0,0.32-0.03,0.48-0.05c-0.21,0.29-0.38,0.62-0.5,0.96s-0.18,0.72-0.18,1.11v1.69
				c0,1.96,1.59,3.55,3.55,3.55c1.91,0,3.46-1.52,3.54-3.42c0.1,0.01,0.21,0.03,0.31,0.03h4.36v0.55c0,1.57,1.27,2.84,2.84,2.84
				c1.57,0,2.84-1.27,2.84-2.84v-2.69c0-1.57-1.27-2.84-2.84-2.84h-3.65v-0.26c0-1.96-1.59-3.55-3.55-3.55c-1,0-1.9,0.42-2.54,1.09
				v-15.27c0.64,0.67,1.54,1.09,2.54,1.09c1.96,0,3.55-1.59,3.55-3.55v-0.26h3.65c1.57,0,2.84-1.27,2.84-2.84l0-2.69
				c0-1.57-1.27-2.84-2.84-2.84c-1.57,0-2.84,1.27-2.84,2.84v0.55h-4.36c-0.11,0-0.21,0.02-0.31,0.03c-0.07-1.9-1.62-3.42-3.54-3.42
				c-1.96,0-3.55,1.59-3.55,3.55v1.69c0,0.35,0.06,0.68,0.15,1c0.01,0.04,0.02,0.07,0.03,0.11c0.12,0.35,0.29,0.67,0.5,0.96
				c-0.16-0.02-0.31-0.05-0.48-0.05c-1.96,0-3.55,1.59-3.55,3.55v1.69c0,0.65,0.18,1.25,0.48,1.77c-0.89,0.19-1.64,0.72-2.15,1.44
				l0-19.35l-6.13,0l0,44.72H131.93z"/>
			<path class="st3" d="M145.42,104.52c-0.3,0.52-0.48,1.12-0.48,1.77v1.69c0,1.96,1.59,3.55,3.55,3.55c0.16,0,0.32-0.03,0.48-0.05
				c-0.21,0.29-0.38,0.62-0.5,0.96s-0.18,0.72-0.18,1.11v1.69c0,1.96,1.59,3.55,3.55,3.55c1.91,0,3.46-1.52,3.54-3.42
				c0.1,0.01,0.21,0.03,0.31,0.03h4.36v0.55c0,1.57,1.27,2.84,2.84,2.84s2.84-1.27,2.84-2.84v-2.69c0-1.57-1.27-2.84-2.84-2.84
				l-3.65,0v-0.26c0-1.96-1.59-3.55-3.55-3.55c-1,0-1.9,0.42-2.54,1.09V92.44c0.64,0.67,1.54,1.09,2.54,1.09
				c1.96,0,3.55-1.59,3.55-3.55v-0.26l3.65,0c1.57,0,2.84-1.27,2.84-2.84v-2.69c0-1.57-1.27-2.84-2.84-2.84s-2.84,1.27-2.84,2.84
				v0.55h-4.36c-0.11,0-0.21,0.02-0.31,0.03c-0.07-1.9-1.62-3.42-3.54-3.42c-1.96,0-3.55,1.59-3.55,3.55v1.69
				c0,0.35,0.06,0.68,0.15,1c0.01,0.04,0.02,0.07,0.03,0.11c0.12,0.35,0.29,0.67,0.5,0.96c-0.16-0.02-0.31-0.05-0.48-0.05
				c-1.96,0-3.55,1.59-3.55,3.55v1.69c0,0.65,0.18,1.25,0.48,1.77c-0.89,0.19-1.64,0.72-2.15,1.44l0-19.35l-6.13,0l0,44.72l6.13,0
				v-19.35C143.77,103.8,144.53,104.33,145.42,104.52z"/>
			<path class="st3" d="M134.08,149.88c-0.3,0.52-0.48,1.12-0.48,1.77v1.69c0,1.96,1.59,3.55,3.55,3.55c0.16,0,0.32-0.03,0.48-0.05
				c-0.21,0.29-0.38,0.62-0.5,0.96s-0.18,0.72-0.18,1.11v1.69c0,1.96,1.59,3.55,3.55,3.55c1.91,0,3.46-1.52,3.54-3.42
				c0.1,0.01,0.21,0.03,0.31,0.03h4.36v0.55c0,1.57,1.27,2.84,2.84,2.84c1.57,0,2.84-1.27,2.84-2.84v-2.69
				c0-1.57-1.27-2.84-2.84-2.84h-3.65v-0.26c0-1.96-1.59-3.55-3.55-3.55c-1,0-1.9,0.42-2.54,1.09V137.8
				c0.64,0.67,1.54,1.09,2.54,1.09c1.96,0,3.55-1.59,3.55-3.55v-0.26h3.65c1.57,0,2.84-1.27,2.84-2.84v-2.69
				c0-1.57-1.27-2.84-2.84-2.84c-1.57,0-2.84,1.27-2.84,2.84v0.55h-4.36c-0.11,0-0.21,0.02-0.31,0.03c-0.07-1.9-1.62-3.42-3.54-3.42
				c-1.96,0-3.55,1.59-3.55,3.55v1.69c0,0.35,0.06,0.68,0.15,1c0.01,0.04,0.02,0.07,0.03,0.11c0.12,0.35,0.29,0.67,0.5,0.96
				c-0.16-0.02-0.31-0.05-0.48-0.05c-1.96,0-3.55,1.59-3.55,3.55v1.69c0,0.65,0.18,1.25,0.48,1.77c-0.89,0.19-1.64,0.72-2.15,1.44
				l0-19.35h-6.13l0,44.72l6.13,0v-19.35C132.43,149.16,133.19,149.69,134.08,149.88z"/>
			<path class="st3" d="M122.74,195.24c-0.3,0.52-0.48,1.12-0.48,1.77v1.69c0,1.96,1.59,3.55,3.55,3.55c0.16,0,0.32-0.03,0.48-0.05
				c-0.21,0.29-0.38,0.62-0.5,0.96s-0.18,0.72-0.18,1.11v1.69c0,1.96,1.59,3.55,3.55,3.55c1.91,0,3.46-1.52,3.54-3.42
				c0.1,0.01,0.21,0.03,0.31,0.03h4.36v0.55c0,1.57,1.27,2.84,2.84,2.84s2.84-1.27,2.84-2.84v-2.69c0-1.57-1.27-2.84-2.84-2.84
				h-3.65v-0.26c0-1.96-1.59-3.55-3.55-3.55c-1,0-1.9,0.42-2.54,1.09v-15.27c0.64,0.67,1.54,1.09,2.54,1.09
				c1.96,0,3.55-1.59,3.55-3.55v-0.26h3.65c1.57,0,2.84-1.27,2.84-2.84l0-2.69c0-1.57-1.27-2.84-2.84-2.84s-2.84,1.27-2.84,2.84
				v0.55H133c-0.11,0-0.21,0.02-0.31,0.03c-0.07-1.9-1.62-3.42-3.54-3.42c-1.96,0-3.55,1.59-3.55,3.55v1.69c0,0.35,0.06,0.68,0.15,1
				c0.01,0.04,0.02,0.07,0.03,0.11c0.12,0.35,0.29,0.67,0.5,0.96c-0.16-0.02-0.31-0.05-0.48-0.05c-1.96,0-3.55,1.59-3.55,3.55v1.69
				c0,0.65,0.18,1.25,0.48,1.77c-0.89,0.19-1.64,0.72-2.15,1.44v-19.35h-6.13l0,44.72h6.13l0-19.35
				C121.09,194.52,121.85,195.05,122.74,195.24z"/>
			<path class="st3" d="M114.69,115.41v0.55c0,1.57,1.27,2.84,2.84,2.84c1.57,0,2.84-1.27,2.84-2.84v-2.69
				c0-1.57-1.27-2.84-2.84-2.84l-3.65,0v-0.26c0-1.96-1.59-3.55-3.55-3.55c-1,0-1.9,0.42-2.54,1.09l0-15.27
				c0.64,0.67,1.54,1.09,2.54,1.09c1.96,0,3.55-1.59,3.55-3.55v-0.26l3.65,0c1.57,0,2.84-1.27,2.84-2.84v-2.69
				c0-1.57-1.27-2.84-2.84-2.84c-1.57,0-2.84,1.27-2.84,2.84v0.55h-4.36c-0.11,0-0.21,0.02-0.31,0.03c-0.07-1.9-1.62-3.42-3.54-3.42
				c-1.96,0-3.55,1.59-3.55,3.55v1.69c0,0.35,0.06,0.68,0.15,1c0.01,0.04,0.02,0.07,0.03,0.11c0.12,0.35,0.29,0.67,0.5,0.96
				c-0.16-0.02-0.31-0.05-0.48-0.05c-1.96,0-3.55,1.59-3.55,3.55v1.69c0,0.65,0.18,1.25,0.48,1.77c-0.89,0.19-1.65,0.72-2.15,1.45
				v-8.02l-6.12,0l0,22.04l6.12,0v-8.02c0.51,0.72,1.26,1.25,2.15,1.45c-0.3,0.52-0.48,1.12-0.48,1.77v1.69
				c0,1.96,1.59,3.55,3.55,3.55c0.16,0,0.32-0.03,0.48-0.05c-0.21,0.29-0.38,0.62-0.5,0.96s-0.18,0.72-0.18,1.11v1.69
				c0,1.96,1.59,3.55,3.55,3.55c1.91,0,3.46-1.52,3.54-3.42c0.1,0.01,0.21,0.03,0.31,0.03H114.69z"/>
			<path class="st3" d="M103.35,160.77v0.55c0,1.57,1.27,2.84,2.84,2.84s2.84-1.27,2.84-2.84v-2.69c0-1.57-1.27-2.84-2.84-2.84
				h-3.65v-0.26c0-1.96-1.59-3.55-3.55-3.55c-1,0-1.9,0.42-2.54,1.09l0-15.27c0.64,0.67,1.54,1.09,2.54,1.09
				c1.96,0,3.55-1.59,3.55-3.55v-0.26h3.65c1.57,0,2.84-1.27,2.84-2.84v-2.69c0-1.57-1.27-2.84-2.84-2.84s-2.84,1.27-2.84,2.84v0.55
				h-4.36c-0.11,0-0.21,0.02-0.31,0.03c-0.07-1.9-1.62-3.42-3.54-3.42c-1.96,0-3.55,1.59-3.55,3.55v1.69c0,0.35,0.06,0.68,0.15,1
				c0.01,0.04,0.02,0.07,0.03,0.11c0.12,0.35,0.29,0.67,0.5,0.96c-0.16-0.02-0.31-0.05-0.48-0.05c-1.96,0-3.55,1.59-3.55,3.55v1.69
				c0,0.65,0.18,1.25,0.48,1.77c-0.89,0.19-1.65,0.72-2.15,1.45v-8.02l-6.12,0l0,22.04l6.12,0v-8.02c0.51,0.72,1.26,1.25,2.15,1.45
				c-0.3,0.52-0.48,1.12-0.48,1.77v1.69c0,1.96,1.59,3.55,3.55,3.55c0.16,0,0.32-0.03,0.48-0.05c-0.21,0.29-0.38,0.62-0.5,0.96
				c-0.12,0.35-0.18,0.72-0.18,1.11v1.69c0,1.96,1.59,3.55,3.55,3.55c1.91,0,3.46-1.52,3.54-3.42c0.1,0.01,0.21,0.03,0.31,0.03
				H103.35z"/>
			<path class="st3" d="M92.01,206.13v0.55c0,1.57,1.27,2.84,2.84,2.84s2.84-1.27,2.84-2.84v-2.69c0-1.57-1.27-2.84-2.84-2.84h-3.65
				v-0.26c0-1.96-1.59-3.55-3.55-3.55c-1,0-1.9,0.42-2.54,1.09l0-15.27c0.64,0.67,1.54,1.09,2.54,1.09c1.96,0,3.55-1.59,3.55-3.55
				v-0.26h3.65c1.57,0,2.84-1.27,2.84-2.84v-2.69c0-1.57-1.27-2.84-2.84-2.84s-2.84,1.27-2.84,2.84v0.55h-4.36
				c-0.11,0-0.21,0.02-0.31,0.03c-0.07-1.9-1.62-3.42-3.54-3.42c-1.96,0-3.55,1.59-3.55,3.55v1.69c0,0.35,0.06,0.68,0.15,1
				c0.01,0.04,0.02,0.07,0.03,0.11c0.12,0.35,0.29,0.67,0.5,0.96c-0.16-0.02-0.31-0.05-0.48-0.05c-1.96,0-3.55,1.59-3.55,3.55v1.69
				c0,0.65,0.18,1.25,0.48,1.77c-0.89,0.19-1.65,0.72-2.15,1.45v-8.02H69.1l0,22.04h6.12v-8.02c0.51,0.72,1.26,1.25,2.15,1.45
				c-0.3,0.52-0.48,1.12-0.48,1.77v1.69c0,1.96,1.59,3.55,3.55,3.55c0.16,0,0.32-0.03,0.48-0.05c-0.21,0.29-0.38,0.62-0.5,0.96
				s-0.18,0.72-0.18,1.11v1.69c0,1.96,1.59,3.55,3.55,3.55c1.91,0,3.46-1.52,3.54-3.42c0.1,0.01,0.21,0.03,0.31,0.03H92.01z"/>
			<path class="st3" d="M103.35,251.49v0.55c0,1.57,1.27,2.84,2.84,2.84s2.84-1.27,2.84-2.84v-2.69c0-1.57-1.27-2.84-2.84-2.84
				h-3.65v-0.26c0-1.96-1.59-3.55-3.55-3.55c-1,0-1.9,0.42-2.54,1.09l0-15.27c0.64,0.67,1.54,1.09,2.54,1.09
				c1.96,0,3.55-1.59,3.55-3.55v-0.26h3.65c1.57,0,2.84-1.27,2.84-2.84v-2.69c0-1.57-1.27-2.84-2.84-2.84s-2.84,1.27-2.84,2.84v0.55
				h-4.36c-0.11,0-0.21,0.02-0.31,0.03c-0.07-1.9-1.62-3.42-3.54-3.42c-1.96,0-3.55,1.59-3.55,3.55v1.69c0,0.35,0.06,0.68,0.15,1
				c0.01,0.04,0.02,0.07,0.03,0.11c0.12,0.35,0.29,0.67,0.5,0.96c-0.16-0.02-0.31-0.05-0.48-0.05c-1.96,0-3.55,1.59-3.55,3.55v1.69
				c0,0.65,0.18,1.25,0.48,1.77c-0.89,0.19-1.65,0.72-2.15,1.45l0-8.02l-6.12,0l0,22.04l6.12,0v-8.02c0.51,0.72,1.26,1.25,2.15,1.45
				c-0.3,0.52-0.48,1.12-0.48,1.77v1.69c0,1.96,1.59,3.55,3.55,3.55c0.16,0,0.32-0.03,0.48-0.05c-0.21,0.29-0.38,0.62-0.5,0.96
				c-0.12,0.35-0.18,0.72-0.18,1.11v1.69c0,1.96,1.59,3.55,3.55,3.55c1.91,0,3.46-1.52,3.54-3.42c0.1,0.01,0.21,0.03,0.31,0.03
				H103.35z"/>
			<path class="st3" d="M69.33,115.41v0.55c0,1.57,1.27,2.84,2.84,2.84c1.57,0,2.84-1.27,2.84-2.84v-2.69
				c0-1.57-1.27-2.84-2.84-2.84l-3.65,0v-0.26c0-1.96-1.59-3.55-3.55-3.55c-1,0-1.9,0.42-2.54,1.09l0-15.27
				c0.64,0.67,1.54,1.09,2.54,1.09c1.96,0,3.55-1.59,3.55-3.55v-0.26l3.65,0c1.57,0,2.84-1.27,2.84-2.84v-2.69
				c0-1.57-1.27-2.84-2.84-2.84c-1.57,0-2.84,1.27-2.84,2.84v0.55h-4.36c-0.11,0-0.21,0.02-0.31,0.03c-0.07-1.9-1.62-3.42-3.54-3.42
				c-1.96,0-3.55,1.59-3.55,3.55v1.69c0,0.35,0.06,0.68,0.15,1c0.01,0.04,0.02,0.07,0.03,0.11c0.12,0.35,0.29,0.67,0.5,0.96
				c-0.16-0.02-0.31-0.05-0.48-0.05c-1.96,0-3.55,1.59-3.55,3.55v1.69c0,0.65,0.18,1.25,0.48,1.77c-1.6,0.34-2.8,1.77-2.8,3.47v0.26
				v1.43v0.26c0,1.7,1.2,3.12,2.8,3.47c-0.3,0.52-0.48,1.12-0.48,1.77v1.69c0,1.96,1.59,3.55,3.55,3.55c0.16,0,0.32-0.03,0.48-0.05
				c-0.21,0.29-0.38,0.62-0.5,0.96s-0.18,0.72-0.18,1.11v1.69c0,1.96,1.59,3.55,3.55,3.55c1.91,0,3.46-1.52,3.54-3.42
				c0.1,0.01,0.21,0.03,0.31,0.03H69.33z"/>
			<path class="st3" d="M57.99,160.77v0.55c0,1.57,1.27,2.84,2.84,2.84s2.84-1.27,2.84-2.84l0-2.69c0-1.57-1.27-2.84-2.84-2.84
				h-3.65v-0.26c0-1.96-1.59-3.55-3.55-3.55c-1,0-1.9,0.42-2.54,1.09l0-15.27c0.64,0.67,1.54,1.09,2.54,1.09
				c1.96,0,3.55-1.59,3.55-3.55v-0.26h3.65c1.57,0,2.84-1.27,2.84-2.84v-2.69c0-1.57-1.27-2.84-2.84-2.84s-2.84,1.27-2.84,2.84v0.55
				h-4.36c-0.11,0-0.21,0.02-0.31,0.03c-0.07-1.9-1.62-3.42-3.54-3.42c-1.96,0-3.55,1.59-3.55,3.55v1.69c0,0.35,0.06,0.68,0.15,1
				c0.01,0.04,0.02,0.07,0.03,0.11c0.12,0.35,0.29,0.67,0.5,0.96c-0.16-0.02-0.31-0.05-0.48-0.05c-1.96,0-3.55,1.59-3.55,3.55
				l0,1.69c0,0.65,0.18,1.25,0.48,1.77c-1.6,0.34-2.8,1.77-2.8,3.47v0.26v1.43v0.26c0,1.7,1.2,3.12,2.8,3.47
				c-0.3,0.52-0.48,1.12-0.48,1.77v1.69c0,1.96,1.59,3.55,3.55,3.55c0.16,0,0.32-0.03,0.48-0.05c-0.21,0.29-0.38,0.62-0.5,0.96
				s-0.18,0.72-0.18,1.11l0,1.69c0,1.96,1.59,3.55,3.55,3.55c1.91,0,3.46-1.52,3.54-3.42c0.1,0.01,0.21,0.03,0.31,0.03H57.99z"/>
			<path class="st3" d="M46.65,206.13v0.55c0,1.57,1.27,2.84,2.84,2.84s2.84-1.27,2.84-2.84l0-2.69c0-1.57-1.27-2.84-2.84-2.84
				h-3.65v-0.26c0-1.96-1.59-3.55-3.55-3.55c-1,0-1.9,0.42-2.54,1.09l0-15.27c0.64,0.67,1.54,1.09,2.54,1.09
				c1.96,0,3.55-1.59,3.55-3.55v-0.26h3.65c1.57,0,2.84-1.27,2.84-2.84v-2.69c0-1.57-1.27-2.84-2.84-2.84s-2.84,1.27-2.84,2.84v0.55
				h-4.36c-0.11,0-0.21,0.02-0.31,0.03c-0.07-1.9-1.62-3.42-3.54-3.42c-1.96,0-3.55,1.59-3.55,3.55v1.69c0,0.35,0.06,0.68,0.15,1
				c0.01,0.04,0.02,0.07,0.03,0.11c0.12,0.35,0.29,0.67,0.5,0.96c-0.16-0.02-0.31-0.05-0.48-0.05c-1.96,0-3.55,1.59-3.55,3.55v1.69
				c0,0.65,0.18,1.25,0.48,1.77c-1.6,0.34-2.8,1.77-2.8,3.47v0.26l0,1.43v0.26c0,1.7,1.2,3.12,2.8,3.47
				c-0.3,0.52-0.48,1.12-0.48,1.77v1.69c0,1.96,1.59,3.55,3.55,3.55c0.16,0,0.32-0.03,0.48-0.05c-0.21,0.29-0.38,0.62-0.5,0.96
				s-0.18,0.72-0.18,1.11l0,1.69c0,1.96,1.59,3.55,3.55,3.55c1.91,0,3.46-1.52,3.54-3.42c0.1,0.01,0.21,0.03,0.31,0.03H46.65z"/>
			<path class="st3" d="M57.99,251.49v0.55c0,1.57,1.27,2.84,2.84,2.84s2.84-1.27,2.84-2.84v-2.69c0-1.57-1.27-2.84-2.84-2.84h-3.65
				v-0.26c0-1.96-1.59-3.55-3.55-3.55c-1,0-1.9,0.42-2.54,1.09l0-15.27c0.64,0.67,1.54,1.09,2.54,1.09c1.96,0,3.55-1.59,3.55-3.55
				v-0.26h3.65c1.57,0,2.84-1.27,2.84-2.84v-2.69c0-1.57-1.27-2.84-2.84-2.84s-2.84,1.27-2.84,2.84v0.55h-4.36
				c-0.11,0-0.21,0.02-0.31,0.03c-0.07-1.9-1.62-3.42-3.54-3.42c-1.96,0-3.55,1.59-3.55,3.55v1.69c0,0.35,0.06,0.68,0.15,1
				c0.01,0.04,0.02,0.07,0.03,0.11c0.12,0.35,0.29,0.67,0.5,0.96c-0.16-0.02-0.31-0.05-0.48-0.05c-1.96,0-3.55,1.59-3.55,3.55v1.69
				c0,0.65,0.18,1.25,0.48,1.77c-1.6,0.34-2.8,1.77-2.8,3.47v0.26v1.43v0.26c0,1.7,1.2,3.12,2.8,3.47c-0.3,0.52-0.48,1.12-0.48,1.77
				v1.69c0,1.96,1.59,3.55,3.55,3.55c0.16,0,0.32-0.03,0.48-0.05c-0.21,0.29-0.38,0.62-0.5,0.96c-0.12,0.35-0.18,0.72-0.18,1.11
				v1.69c0,1.96,1.59,3.55,3.55,3.55c1.91,0,3.46-1.52,3.54-3.42c0.1,0.01,0.21,0.03,0.31,0.03H57.99z"/>
			<circle class="st3" cx="207.08" cy="146.87" r="6.52"/>
			<circle class="st3" cx="199.08" cy="194.67" r="6.52"/>
			<circle class="st3" cx="162.88" cy="100.08" r="6.52"/>
			<circle class="st3" cx="151.54" cy="145.44" r="6.52"/>
			<circle class="st3" cx="140.2" cy="190.8" r="6.52"/>
			<circle class="st3" cx="151.54" cy="236.16" r="6.52"/>
			<circle class="st3" cx="117.52" cy="100.08" r="6.52"/>
			<circle class="st3" cx="106.18" cy="145.44" r="6.52"/>
			<circle class="st3" cx="94.84" cy="190.8" r="6.52"/>
			<circle class="st3" cx="106.18" cy="236.16" r="6.52"/>
			<circle class="st3" cx="117.52" cy="281.52" r="6.52"/>
			<circle class="st3" cx="72.16" cy="100.08" r="6.52"/>
			<circle class="st3" cx="60.82" cy="145.44" r="6.52"/>
			<circle class="st3" cx="49.48" cy="190.8" r="6.52"/>
			<circle class="st3" cx="60.82" cy="236.16" r="6.52"/>
			
				<ellipse transform="matrix(0.3827 -0.9239 0.9239 0.3827 43.5637 266.0108)" class="st3" cx="220.84" cy="100.41" rx="6.52" ry="6.52"/>
			<circle class="st3" cx="240.16" cy="55.96" r="6.52"/>
			<path class="st3" d="M234.04,35.82l-0.77,1.51c-0.16,0.31-0.26,0.64-0.32,0.96c-0.01,0.04-0.02,0.07-0.02,0.11
				c-0.05,0.36-0.05,0.73,0.01,1.09c-0.13-0.09-0.26-0.18-0.4-0.26c-1.75-0.89-3.89-0.2-4.78,1.55l-0.77,1.51
				c-0.29,0.58-0.4,1.19-0.37,1.79c-1.58-0.42-3.3,0.3-4.07,1.82l-0.12,0.24l-0.65,1.27l-0.12,0.24c-0.77,1.52-0.35,3.33,0.92,4.36
				c-0.51,0.33-0.94,0.78-1.23,1.35l-0.77,1.51c-0.89,1.75-0.2,3.89,1.55,4.78c0.15,0.07,0.3,0.12,0.45,0.17
				c-0.32,0.16-0.62,0.38-0.88,0.63c-0.26,0.26-0.49,0.56-0.66,0.91l-0.77,1.51c-0.89,1.75-0.2,3.89,1.55,4.78
				c1.71,0.87,3.78,0.22,4.7-1.44c0.09,0.06,0.17,0.12,0.26,0.17l3.89,1.98l-0.25,0.49c-0.69,1.35-0.18,2.98,1.11,3.73l-4.35,10.24
				c-1.46-0.5-3.06,0.25-3.59,1.71l-0.19,0.51l-4.1-1.49c-0.1-0.04-0.2-0.05-0.3-0.08c0.58-1.81-0.36-3.76-2.16-4.42
				c-1.84-0.67-3.88,0.28-4.55,2.12l-0.58,1.59c-0.12,0.33-0.18,0.66-0.2,0.99c0,0.04-0.01,0.07-0.01,0.11
				c-0.01,0.37,0.04,0.73,0.14,1.08c-0.14-0.07-0.28-0.15-0.43-0.21c-1.84-0.67-3.88,0.28-4.55,2.12l-0.58,1.59
				c-0.22,0.61-0.25,1.23-0.15,1.83c-1.62-0.22-3.24,0.7-3.82,2.3l-0.09,0.25l-0.35,0.97l-5.14-1.87l-7.54,20.71l5.75,2.09
				l6.62-18.18c0.23,0.85,0.76,1.6,1.53,2.08c-0.46,0.39-0.84,0.89-1.06,1.5l-0.58,1.59c-0.67,1.84,0.28,3.88,2.12,4.55
				c0.15,0.06,0.31,0.08,0.46,0.12c-0.3,0.2-0.57,0.45-0.8,0.74c-0.23,0.29-0.42,0.61-0.55,0.98l-0.58,1.59
				c-0.67,1.84,0.28,3.88,2.12,4.55c1.8,0.65,3.78-0.24,4.49-2c0.1,0.04,0.18,0.1,0.28,0.14l4.1,1.49l-0.19,0.51
				c-0.52,1.42,0.18,2.98,1.56,3.57l-3.07,10.69c-1.51-0.32-3,0.62-3.35,2.13l-0.12,0.53l-4.25-0.98c-0.1-0.02-0.21-0.03-0.31-0.04
				c0.36-1.86-0.81-3.69-2.68-4.12c-1.91-0.44-3.82,0.75-4.26,2.66l-0.38,1.65c-0.08,0.34-0.1,0.68-0.08,1.01c0,0.04,0,0.07,0,0.11
				c0.04,0.37,0.13,0.72,0.27,1.05c-0.15-0.06-0.29-0.12-0.45-0.15c-1.91-0.44-3.82,0.75-4.26,2.66l-0.38,1.65
				c-0.15,0.63-0.1,1.25,0.07,1.83c-0.91-0.01-1.76,0.33-2.41,0.92l1.8-7.81l-5.97-1.38l-4.96,21.48l5.97,1.38l1.8-7.81
				c0.33,0.81,0.95,1.5,1.77,1.88c-0.41,0.44-0.72,0.98-0.87,1.61l-0.38,1.65c-0.44,1.91,0.75,3.82,2.66,4.26
				c0.16,0.04,0.32,0.05,0.47,0.06c-0.27,0.24-0.51,0.51-0.7,0.83c-0.19,0.31-0.34,0.66-0.43,1.04l-0.38,1.65
				c-0.44,1.91,0.75,3.82,2.66,4.26c1.87,0.43,3.72-0.7,4.22-2.53c0.1,0.03,0.19,0.08,0.3,0.1l4.25,0.98l-0.12,0.53
				c-0.34,1.48,0.55,2.94,1.99,3.36l-1.74,10.98c-1.54-0.13-2.91,0.98-3.07,2.53l-0.06,0.54l-4.34-0.46c-0.11-0.01-0.21,0-0.31,0
				c0.13-1.89-1.26-3.57-3.16-3.77c-1.95-0.21-3.7,1.21-3.9,3.16l-0.18,1.68c-0.04,0.35-0.01,0.69,0.05,1.01
				c0.01,0.04,0.01,0.07,0.02,0.11c0.08,0.36,0.21,0.7,0.39,1.01c-0.15-0.04-0.31-0.08-0.47-0.1c-1.95-0.21-3.7,1.21-3.9,3.16
				l-0.18,1.68c-0.07,0.64,0.05,1.26,0.3,1.81c-0.9,0.1-1.71,0.54-2.28,1.2l0.84-7.97l-6.09-0.64l-2.3,21.92l6.09,0.64l0.84-7.97
				c0.43,0.77,1.12,1.37,1.98,1.65c-0.35,0.49-0.6,1.06-0.67,1.71l-0.18,1.68c-0.21,1.95,1.21,3.7,3.16,3.9
				c0.16,0.02,0.32,0.01,0.48,0c-0.24,0.27-0.44,0.57-0.6,0.91c-0.15,0.33-0.26,0.7-0.3,1.08l-0.18,1.68
				c-0.21,1.95,1.21,3.7,3.16,3.9c1.9,0.2,3.6-1.15,3.88-3.03c0.1,0.02,0.2,0.05,0.31,0.06l4.34,0.46l-0.06,0.54
				c-0.16,1.56,0.97,2.95,2.53,3.12c1.56,0.16,2.95-0.97,3.12-2.53l0.28-2.68c0.16-1.56-0.97-2.95-2.53-3.12l-3.63-0.38l0.03-0.26
				c0.21-1.95-1.21-3.7-3.16-3.9c-1-0.1-1.93,0.22-2.64,0.82l1.6-15.19c0.57,0.73,1.42,1.25,2.41,1.35c1.95,0.21,3.7-1.21,3.9-3.16
				l0.03-0.26l3.63,0.38c1.38,0.15,2.63-0.73,3.01-2.02l19.29,3.06l3.55-22.4l-19.09-3.02c0.13-1.39-0.77-2.7-2.17-3.03l-3.56-0.82
				l0.06-0.25c0.44-1.91-0.75-3.82-2.66-4.26c-0.98-0.23-1.94-0.02-2.72,0.49l3.44-14.88c0.48,0.8,1.25,1.41,2.23,1.63
				c1.91,0.44,3.82-0.75,4.26-2.66l0.06-0.25l3.56,0.82c1.35,0.31,2.7-0.4,3.24-1.63l18.77,5.38l6.25-21.8l-18.57-5.33
				c0.3-1.37-0.44-2.78-1.79-3.27l-3.43-1.25l0.09-0.24c0.67-1.84-0.28-3.88-2.12-4.55c-0.94-0.34-1.93-0.25-2.76,0.16l5.22-14.35
				c0.38,0.85,1.07,1.55,2.01,1.89c1.84,0.67,3.88-0.28,4.55-2.12l0.09-0.24l3.43,1.25c1.31,0.48,2.73-0.07,3.41-1.23l17.97,7.63
				l8.86-20.87l-17.79-7.55c0.46-1.32-0.1-2.81-1.38-3.46l-3.25-1.66l0.12-0.23c0.89-1.75,0.2-3.89-1.55-4.78
				c-0.89-0.45-1.88-0.49-2.76-0.18l6.93-13.61c0.27,0.89,0.88,1.67,1.77,2.12c1.75,0.89,3.89,0.2,4.78-1.55l0.12-0.23l3.25,1.66
				c1.4,0.71,3.1,0.16,3.82-1.24l1.22-2.4c0.71-1.4,0.16-3.1-1.24-3.82s-3.1-0.16-3.82,1.24l-0.25,0.49l-3.89-1.98
				c-0.1-0.05-0.2-0.07-0.29-0.11c0.8-1.72,0.1-3.78-1.6-4.65C237.07,33.38,234.93,34.07,234.04,35.82z"/>
			<path class="st3" d="M91.78,259.15l0,19.66H78.1c-1.03-2.25-3.29-3.82-5.93-3.82c-3.6,0-6.52,2.92-6.52,6.52
				c0,3.6,2.92,6.52,6.52,6.52c0.69,0,1.36-0.11,1.98-0.31v4.96c-0.51-0.5-1.21-0.81-1.98-0.81h-3.65v-0.26
				c0-1.96-1.59-3.55-3.55-3.55c-1,0-1.9,0.42-2.54,1.09l0-15.27c0.64,0.67,1.54,1.09,2.54,1.09c1.96,0,3.55-1.59,3.55-3.55v-0.26
				h3.65c1.57,0,2.84-1.27,2.84-2.84v-2.69c0-1.57-1.27-2.84-2.84-2.84s-2.84,1.27-2.84,2.84v0.55h-4.36
				c-0.11,0-0.21,0.02-0.31,0.03c-0.07-1.9-1.62-3.41-3.54-3.41c-1.96,0-3.55,1.59-3.55,3.55v1.69c0,0.35,0.06,0.68,0.15,1
				c0.01,0.04,0.02,0.07,0.03,0.11c0.12,0.35,0.29,0.67,0.5,0.96c-0.16-0.02-0.31-0.05-0.48-0.05c-1.96,0-3.55,1.59-3.55,3.55v1.69
				c0,0.65,0.18,1.25,0.48,1.77c-1.6,0.34-2.8,1.77-2.8,3.47v0.26l0,1.43v0.26c0,1.7,1.2,3.12,2.8,3.47
				c-0.3,0.52-0.48,1.12-0.48,1.77v1.69c0,1.96,1.59,3.55,3.55,3.55c0.16,0,0.32-0.03,0.48-0.05c-0.21,0.29-0.38,0.62-0.5,0.96
				c-0.12,0.35-0.18,0.72-0.18,1.11v1.69c0,1.96,1.59,3.55,3.55,3.55c1.91,0,3.46-1.52,3.54-3.41c0.1,0.01,0.21,0.03,0.31,0.03h4.36
				v0.55c0,1.57,1.27,2.84,2.84,2.84c0.77,0,1.47-0.31,1.98-0.81v2.07h18.52h4.16h3.23l0-10.31c0.61,1.07,1.75,1.79,3.07,1.79
				c0.16,0,0.32-0.03,0.48-0.05c-0.21,0.29-0.38,0.62-0.5,0.96c-0.12,0.35-0.18,0.72-0.18,1.11v1.69c0,1.96,1.59,3.55,3.55,3.55
				c1.91,0,3.46-1.52,3.54-3.41c0.1,0.01,0.21,0.03,0.31,0.03h4.36v0.55c0,1.57,1.27,2.84,2.84,2.84s2.84-1.27,2.84-2.84v-2.69
				c0-1.57-1.27-2.84-2.84-2.84h-3.65v-0.26c0-1.96-1.59-3.55-3.55-3.55c-1,0-1.9,0.42-2.54,1.09l0-15.27
				c0.64,0.67,1.54,1.09,2.54,1.09c1.96,0,3.55-1.59,3.55-3.55v-0.26h3.65c1.57,0,2.84-1.27,2.84-2.84v-2.69
				c0-1.57-1.27-2.84-2.84-2.84s-2.84,1.27-2.84,2.84v0.55h-4.36c-0.11,0-0.21,0.02-0.31,0.03c-0.07-1.9-1.62-3.41-3.54-3.41
				c-1.96,0-3.55,1.59-3.55,3.55v1.69c0,0.35,0.06,0.68,0.15,1c0.01,0.04,0.02,0.07,0.03,0.11c0.12,0.35,0.29,0.67,0.5,0.96
				c-0.16-0.02-0.31-0.05-0.48-0.05c-1.96,0-3.55,1.59-3.55,3.55v1.69c0,0.65,0.18,1.25,0.48,1.77c-0.89,0.19-1.65,0.72-2.15,1.45
				l0-19.36H91.78z"/>
		</g>
		<g id="ネジ穴_00000080183785552972691830000004936874700940986289_">
			<circle class="st3" cx="137.33" cy="68.39" r="2.83"/>
			<circle class="st3" cx="190.61" cy="29.51" r="2.83"/>
			<circle class="st2" cx="22.56" cy="217.72" r="2.83"/>
			<circle class="st2" cx="22.56" cy="163.93" r="2.83"/>
			<circle class="st2" cx="45.23" cy="308.44" r="2.83"/>
			<circle class="st2" cx="189.81" cy="308.44" r="2.83"/>
			<circle class="st2" cx="223.04" cy="224.26" r="2.83"/>
			<circle class="st2" cx="276.63" cy="44.37" r="2.83"/>
			<circle class="st2" cx="238.49" cy="24.9" r="2.83"/>
			<circle class="st2" cx="33.9" cy="77.64" r="2.83"/>
		</g>
	</g>
	<g id="Rev3ボトムプレート_x5F_右_00000003093978862159469070000006886352856633270944_">
		<path class="st2" d="M212.33,781.35c0-0.37-0.08-0.74-0.26-1.09l-1.03-2.02c-0.6-1.19-2.06-1.66-3.24-1.05
			c-1.19,0.6-1.65,2.06-1.05,3.24l1.03,2.02c0.6,1.19,2.06,1.66,3.24,1.05C211.85,783.07,212.33,782.23,212.33,781.35z"/>
		<path class="st2" d="M206.15,784.5c0-0.37-0.08-0.74-0.26-1.09l-1.03-2.02c-0.6-1.19-2.06-1.66-3.24-1.05
			c-1.19,0.6-1.66,2.05-1.05,3.24l1.03,2.02c0.6,1.19,2.06,1.66,3.24,1.05C205.67,786.23,206.15,785.38,206.15,784.5z"/>
		<path class="st2" d="M212.67,808.22c0-0.37-0.08-0.74-0.26-1.09l-1.03-2.02c-0.6-1.19-2.06-1.66-3.24-1.05
			c-1.18,0.6-1.66,2.05-1.05,3.24l1.03,2.02c0.6,1.19,2.06,1.66,3.24,1.05C212.18,809.95,212.67,809.1,212.67,808.22z"/>
		<path class="st2" d="M227.69,800.57c0-0.37-0.08-0.74-0.26-1.09l-1.03-2.02c-0.6-1.19-2.06-1.66-3.24-1.05
			c-1.18,0.6-1.66,2.05-1.05,3.24l1.03,2.02c0.6,1.19,2.06,1.66,3.24,1.05C227.21,802.29,227.69,801.44,227.69,800.57z"/>
		<path class="st2" d="M208.8,800.65c0-0.37-0.08-0.74-0.26-1.09l-1.03-2.02c-0.6-1.19-2.05-1.66-3.24-1.05
			c-1.19,0.6-1.66,2.05-1.05,3.24l1.03,2.02c0.6,1.19,2.05,1.66,3.24,1.05C208.32,802.37,208.8,801.52,208.8,800.65z"/>
		<path class="st2" d="M223.83,792.99c0-0.37-0.08-0.74-0.26-1.09l-1.03-2.02c-0.6-1.19-2.06-1.66-3.24-1.05
			c-1.19,0.6-1.65,2.06-1.05,3.24l1.03,2.02c0.6,1.19,2.06,1.66,3.24,1.05C223.35,794.71,223.83,793.87,223.83,792.99z"/>
		<path class="st2" d="M218.69,782.89c0-0.37-0.08-0.74-0.26-1.09l-1.03-2.02c-0.6-1.19-2.06-1.66-3.24-1.05
			c-1.18,0.6-1.66,2.06-1.05,3.24l1.03,2.02c0.6,1.19,2.06,1.66,3.24,1.05C218.2,784.61,218.69,783.76,218.69,782.89z"/>
		<path class="st2" d="M203.66,790.54c0-0.37-0.08-0.74-0.26-1.09l-1.03-2.02c-0.6-1.19-2.06-1.66-3.24-1.05
			c-1.18,0.6-1.66,2.05-1.05,3.24l1.03,2.02c0.6,1.19,2.06,1.66,3.24,1.05C203.18,792.27,203.66,791.42,203.66,790.54z"/>
		<circle class="st3" cx="208.35" cy="791.38" r="1.7"/>
		<circle class="st3" cx="221.78" cy="806.81" r="1.7"/>
		<circle class="st3" cx="217.36" cy="809.06" r="1.7"/>
		<circle class="st3" cx="212.77" cy="789.13" r="1.7"/>
		
			<rect x="152.79" y="764.11" transform="matrix(-3.464552e-07 1 -1 -3.464552e-07 931.8574 608.4836)" class="st3" width="17.79" height="12.12"/>
		<g>
			<circle class="st3" cx="198.85" cy="773.49" r="2.13"/>
			<circle class="st3" cx="194.72" cy="767.59" r="2.13"/>
			<circle class="st3" cx="144.08" cy="807.45" r="2.13"/>
		</g>
		<g>
			<g>
				<circle class="st3" cx="131.41" cy="782.51" r="1.98"/>
			</g>
			<g>
				<circle class="st3" cx="131.41" cy="789.71" r="1.98"/>
			</g>
			<g>
				<circle class="st3" cx="131.41" cy="796.91" r="1.98"/>
			</g>
			<g>
				<circle class="st3" cx="131.41" cy="804.11" r="1.98"/>
			</g>
			<g>
				<circle class="st3" cx="43.39" cy="814.89" r="2.16"/>
			</g>
			<g>
				<circle class="st3" cx="50.59" cy="814.89" r="2.16"/>
			</g>
			<g>
				<circle class="st3" cx="57.79" cy="814.89" r="2.16"/>
			</g>
			<g>
				<circle class="st3" cx="64.99" cy="814.89" r="2.16"/>
			</g>
			<g>
				<circle class="st3" cx="72.19" cy="814.89" r="2.16"/>
			</g>
			<g>
				<circle class="st3" cx="79.39" cy="814.89" r="2.16"/>
			</g>
			<g>
				<circle class="st3" cx="86.59" cy="814.89" r="2.16"/>
			</g>
			<g>
				<circle class="st3" cx="93.79" cy="814.89" r="2.16"/>
			</g>
			<g>
				<circle class="st3" cx="100.99" cy="814.89" r="2.16"/>
			</g>
			<g>
				<circle class="st3" cx="108.19" cy="814.89" r="2.16"/>
			</g>
			<g>
				<circle class="st3" cx="115.39" cy="814.89" r="2.16"/>
			</g>
			<g>
				<circle class="st3" cx="122.59" cy="814.89" r="2.16"/>
			</g>
			<g>
				<circle class="st3" cx="122.59" cy="771.75" r="2.16"/>
			</g>
			<g>
				<circle class="st3" cx="115.39" cy="771.75" r="2.16"/>
			</g>
			<g>
				<circle class="st3" cx="108.19" cy="771.75" r="2.16"/>
			</g>
			<g>
				<circle class="st3" cx="100.99" cy="771.75" r="2.16"/>
			</g>
			<g>
				<circle class="st3" cx="93.79" cy="771.75" r="2.16"/>
			</g>
			<g>
				<circle class="st3" cx="86.59" cy="771.75" r="2.16"/>
			</g>
			<g>
				<circle class="st3" cx="79.39" cy="771.75" r="2.16"/>
			</g>
			<g>
				<circle class="st3" cx="72.19" cy="771.75" r="2.16"/>
			</g>
			<g>
				<circle class="st3" cx="64.99" cy="771.75" r="2.16"/>
			</g>
			<g>
				<circle class="st3" cx="57.79" cy="771.75" r="2.16"/>
			</g>
			<g>
				<circle class="st3" cx="50.59" cy="771.75" r="2.16"/>
			</g>
			<g>
				<circle class="st3" cx="43.39" cy="771.75" r="2.16"/>
			</g>
			<g>
				<path class="st4" d="M38.35,769.59h-4.32l0,4.32h4.32V769.59z"/>
				<circle class="st3" cx="36.19" cy="814.89" r="2.16"/>
			</g>
		</g>
		<g id="ボトムプレート穴_00000177485239784831274320000012790183331083984810_">
			
				<rect x="209.81" y="762.89" transform="matrix(0.9336 -0.3584 0.3584 0.9336 -259.8254 130.0129)" class="st3" width="22.04" height="6.12"/>
			<path class="st3" d="M149.01,533.35l0,19.35c0.51-0.72,1.26-1.25,2.15-1.44c-0.3-0.52-0.48-1.12-0.48-1.77v-1.69
				c0-1.96,1.59-3.55,3.55-3.55c0.16,0,0.32,0.03,0.48,0.05c-0.21-0.29-0.38-0.62-0.5-0.96c-0.12-0.35-0.18-0.72-0.18-1.11v-1.69
				c0-1.96,1.59-3.55,3.55-3.55c1.91,0,3.46,1.52,3.54,3.41c0.1-0.01,0.21-0.03,0.31-0.03h4.36v-0.55c0-1.57,1.27-2.84,2.84-2.84
				c0.77,0,1.47,0.31,1.98,0.81v-2.07h22.68l0,22.68h-18.73c-1.03,2.25-3.29,3.82-5.93,3.82c-3.6,0-6.52-2.92-6.52-6.52
				c0-3.6,2.92-6.52,6.52-6.52c0.69,0,1.36,0.11,1.98,0.31v-4.96c-0.51,0.5-1.21,0.81-1.98,0.81l-3.65,0v0.26
				c0,1.96-1.59,3.55-3.55,3.55c-1,0-1.9-0.42-2.54-1.09v15.27c0.64-0.67,1.54-1.09,2.54-1.09c1.96,0,3.55,1.59,3.55,3.55v0.26
				l3.65,0c1.57,0,2.84,1.27,2.84,2.84v2.69c0,1.57-1.27,2.84-2.84,2.84c-1.57,0-2.84-1.27-2.84-2.84v-0.55h-4.36
				c-0.11,0-0.21-0.02-0.31-0.03c-0.07,1.9-1.62,3.41-3.54,3.41c-1.96,0-3.55-1.59-3.55-3.55v-1.69c0-0.35,0.06-0.68,0.15-1
				c0.01-0.04,0.02-0.07,0.03-0.11c0.12-0.35,0.29-0.67,0.5-0.96c-0.16,0.02-0.31,0.05-0.48,0.05c-1.96,0-3.55-1.59-3.55-3.55v-1.69
				c0-0.65,0.18-1.25,0.48-1.77c-0.89-0.19-1.64-0.72-2.15-1.44v19.35h-6.13l0-44.72H149.01z"/>
			<path class="st3" d="M137.67,578.71l0,19.35c0.51-0.72,1.26-1.25,2.15-1.44c-0.3-0.52-0.48-1.12-0.48-1.77v-1.69
				c0-1.96,1.59-3.55,3.55-3.55c0.16,0,0.32,0.03,0.48,0.05c-0.21-0.29-0.38-0.62-0.5-0.96s-0.18-0.72-0.18-1.11v-1.69
				c0-1.96,1.59-3.55,3.55-3.55c1.91,0,3.46,1.52,3.54,3.42c0.1-0.01,0.21-0.03,0.31-0.03h4.36v-0.55c0-1.57,1.27-2.84,2.84-2.84
				c1.57,0,2.84,1.27,2.84,2.84v2.69c0,1.57-1.27,2.84-2.84,2.84h-3.65v0.26c0,1.96-1.59,3.55-3.55,3.55c-1,0-1.9-0.42-2.54-1.09
				v15.27c0.64-0.67,1.54-1.09,2.54-1.09c1.96,0,3.55,1.59,3.55,3.55v0.26h3.65c1.57,0,2.84,1.27,2.84,2.84v2.69
				c0,1.57-1.27,2.84-2.84,2.84c-1.57,0-2.84-1.27-2.84-2.84v-0.55h-4.36c-0.11,0-0.21-0.02-0.31-0.03
				c-0.07,1.9-1.62,3.42-3.54,3.42c-1.96,0-3.55-1.59-3.55-3.55v-1.69c0-0.35,0.06-0.68,0.15-1c0.01-0.04,0.02-0.07,0.03-0.11
				c0.12-0.35,0.29-0.67,0.5-0.96c-0.16,0.02-0.31,0.05-0.48,0.05c-1.96,0-3.55-1.59-3.55-3.55v-1.69c0-0.65,0.18-1.25,0.48-1.77
				c-0.89-0.19-1.64-0.72-2.15-1.44v19.35h-6.13l0-44.72H137.67z"/>
			<path class="st3" d="M151.16,732.71c-0.3-0.52-0.48-1.12-0.48-1.77v-1.69c0-1.96,1.59-3.55,3.55-3.55c0.16,0,0.32,0.03,0.48,0.05
				c-0.21-0.29-0.38-0.62-0.5-0.96s-0.18-0.72-0.18-1.11v-1.69c0-1.96,1.59-3.55,3.55-3.55c1.91,0,3.46,1.52,3.54,3.42
				c0.1-0.01,0.21-0.03,0.31-0.03h4.36v-0.55c0-1.57,1.27-2.84,2.84-2.84c1.57,0,2.84,1.27,2.84,2.84v2.69
				c0,1.57-1.27,2.84-2.84,2.84l-3.65,0v0.26c0,1.96-1.59,3.55-3.55,3.55c-1,0-1.9-0.42-2.54-1.09v15.27
				c0.64-0.67,1.54-1.09,2.54-1.09c1.96,0,3.55,1.59,3.55,3.55v0.26l3.65,0c1.57,0,2.84,1.27,2.84,2.84v2.69
				c0,1.57-1.27,2.84-2.84,2.84c-1.57,0-2.84-1.27-2.84-2.84v-0.55h-4.36c-0.11,0-0.21-0.02-0.31-0.03
				c-0.07,1.9-1.62,3.42-3.54,3.42c-1.96,0-3.55-1.59-3.55-3.55v-1.69c0-0.35,0.06-0.68,0.15-1c0.01-0.04,0.02-0.07,0.03-0.11
				c0.12-0.35,0.29-0.67,0.5-0.96c-0.16,0.02-0.31,0.05-0.48,0.05c-1.96,0-3.55-1.59-3.55-3.55v-1.69c0-0.65,0.18-1.25,0.48-1.77
				c-0.89-0.19-1.64-0.72-2.15-1.44l0,19.35h-6.13l0-44.72h6.13l0,19.35C149.52,733.43,150.27,732.9,151.16,732.71z"/>
			<path class="st3" d="M139.82,687.35c-0.3-0.52-0.48-1.12-0.48-1.77v-1.69c0-1.96,1.59-3.55,3.55-3.55c0.16,0,0.32,0.03,0.48,0.05
				c-0.21-0.29-0.38-0.62-0.5-0.96s-0.18-0.72-0.18-1.11v-1.69c0-1.96,1.59-3.55,3.55-3.55c1.91,0,3.46,1.52,3.54,3.42
				c0.1-0.01,0.21-0.03,0.31-0.03h4.36v-0.55c0-1.57,1.27-2.84,2.84-2.84c1.57,0,2.84,1.27,2.84,2.84v2.69
				c0,1.57-1.27,2.84-2.84,2.84h-3.65v0.26c0,1.96-1.59,3.55-3.55,3.55c-1,0-1.9-0.42-2.54-1.09v15.27
				c0.64-0.67,1.54-1.09,2.54-1.09c1.96,0,3.55,1.59,3.55,3.55v0.26h3.65c1.57,0,2.84,1.27,2.84,2.84v2.69
				c0,1.57-1.27,2.84-2.84,2.84c-1.57,0-2.84-1.27-2.84-2.84v-0.55h-4.36c-0.11,0-0.21-0.02-0.31-0.03
				c-0.07,1.9-1.62,3.42-3.54,3.42c-1.96,0-3.55-1.59-3.55-3.55v-1.69c0-0.35,0.06-0.68,0.15-1c0.01-0.04,0.02-0.07,0.03-0.11
				c0.12-0.35,0.29-0.67,0.5-0.96c-0.16,0.02-0.31,0.05-0.48,0.05c-1.96,0-3.55-1.59-3.55-3.55v-1.69c0-0.65,0.18-1.25,0.48-1.77
				c-0.89-0.19-1.64-0.72-2.15-1.44v19.35h-6.13l0-44.72h6.13l0,19.35C138.18,688.07,138.93,687.54,139.82,687.35z"/>
			<path class="st3" d="M128.48,641.99c-0.3-0.52-0.48-1.12-0.48-1.77v-1.69c0-1.96,1.59-3.55,3.55-3.55c0.16,0,0.32,0.03,0.48,0.05
				c-0.21-0.29-0.38-0.62-0.5-0.96s-0.18-0.72-0.18-1.11v-1.69c0-1.96,1.59-3.55,3.55-3.55c1.91,0,3.46,1.52,3.54,3.42
				c0.1-0.01,0.21-0.03,0.31-0.03h4.36v-0.55c0-1.57,1.27-2.84,2.84-2.84s2.84,1.27,2.84,2.84v2.69c0,1.57-1.27,2.84-2.84,2.84
				h-3.65v0.26c0,1.96-1.59,3.55-3.55,3.55c-1,0-1.9-0.42-2.54-1.09v15.27c0.64-0.67,1.54-1.09,2.54-1.09
				c1.96,0,3.55,1.59,3.55,3.55v0.26h3.65c1.57,0,2.84,1.27,2.84,2.84v2.69c0,1.57-1.27,2.84-2.84,2.84s-2.84-1.27-2.84-2.84v-0.55
				h-4.36c-0.11,0-0.21-0.02-0.31-0.03c-0.07,1.9-1.62,3.42-3.54,3.42c-1.96,0-3.55-1.59-3.55-3.55v-1.69c0-0.35,0.06-0.68,0.15-1
				c0.01-0.04,0.02-0.07,0.03-0.11c0.12-0.35,0.29-0.67,0.5-0.96c-0.16,0.02-0.31,0.05-0.48,0.05c-1.96,0-3.55-1.59-3.55-3.55v-1.69
				c0-0.65,0.18-1.25,0.48-1.77c-0.89-0.19-1.64-0.72-2.15-1.44l0,19.35h-6.13l0-44.72h6.13l0,19.35
				C126.84,642.71,127.59,642.18,128.48,641.99z"/>
			<path class="st3" d="M120.43,721.81v-0.55c0-1.57,1.27-2.84,2.84-2.84s2.84,1.27,2.84,2.84v2.69c0,1.57-1.27,2.84-2.84,2.84
				h-3.65v0.26c0,1.96-1.59,3.55-3.55,3.55c-1,0-1.9-0.42-2.54-1.09v15.27c0.64-0.67,1.54-1.09,2.54-1.09
				c1.96,0,3.55,1.59,3.55,3.55v0.26h3.65c1.57,0,2.84,1.27,2.84,2.84v2.69c0,1.57-1.27,2.84-2.84,2.84s-2.84-1.27-2.84-2.84v-0.55
				h-4.36c-0.11,0-0.21-0.02-0.31-0.03c-0.07,1.9-1.62,3.42-3.54,3.42c-1.96,0-3.55-1.59-3.55-3.55v-1.69c0-0.35,0.06-0.68,0.15-1
				c0.01-0.04,0.02-0.07,0.03-0.11c0.12-0.35,0.29-0.67,0.5-0.96c-0.16,0.02-0.31,0.05-0.48,0.05c-1.96,0-3.55-1.59-3.55-3.55v-1.69
				c0-0.65,0.18-1.25,0.48-1.77c-0.89-0.19-1.65-0.72-2.15-1.45l0,8.02h-6.12l0-22.04h6.12v8.02c0.51-0.72,1.26-1.25,2.15-1.45
				c-0.3-0.52-0.48-1.12-0.48-1.77v-1.69c0-1.96,1.59-3.55,3.55-3.55c0.16,0,0.32,0.03,0.48,0.05c-0.21-0.29-0.38-0.62-0.5-0.96
				s-0.18-0.72-0.18-1.11v-1.69c0-1.96,1.59-3.55,3.55-3.55c1.91,0,3.46,1.52,3.54,3.42c0.1-0.01,0.21-0.03,0.31-0.03H120.43z"/>
			<path class="st3" d="M109.09,676.45v-0.55c0-1.57,1.27-2.84,2.84-2.84s2.84,1.27,2.84,2.84v2.69c0,1.57-1.27,2.84-2.84,2.84
				h-3.65v0.26c0,1.96-1.59,3.55-3.55,3.55c-1,0-1.9-0.42-2.54-1.09v15.27c0.64-0.67,1.54-1.09,2.54-1.09
				c1.96,0,3.55,1.59,3.55,3.55v0.26h3.65c1.57,0,2.84,1.27,2.84,2.84v2.69c0,1.57-1.27,2.84-2.84,2.84s-2.84-1.27-2.84-2.84v-0.55
				h-4.36c-0.11,0-0.21-0.02-0.31-0.03c-0.07,1.9-1.62,3.42-3.54,3.42c-1.96,0-3.55-1.59-3.55-3.55v-1.69c0-0.35,0.06-0.68,0.15-1
				c0.01-0.04,0.02-0.07,0.03-0.11c0.12-0.35,0.29-0.67,0.5-0.96c-0.16,0.02-0.31,0.05-0.48,0.05c-1.96,0-3.55-1.59-3.55-3.55v-1.69
				c0-0.65,0.18-1.25,0.48-1.77c-0.89-0.19-1.65-0.72-2.15-1.45v8.02h-6.12l0-22.04h6.12l0,8.02c0.51-0.72,1.26-1.25,2.15-1.45
				c-0.3-0.52-0.48-1.12-0.48-1.77v-1.69c0-1.96,1.59-3.55,3.55-3.55c0.16,0,0.32,0.03,0.48,0.05c-0.21-0.29-0.38-0.62-0.5-0.96
				c-0.12-0.35-0.18-0.72-0.18-1.11v-1.69c0-1.96,1.59-3.55,3.55-3.55c1.91,0,3.46,1.52,3.54,3.42c0.1-0.01,0.21-0.03,0.31-0.03
				H109.09z"/>
			<path class="st3" d="M97.75,631.09v-0.55c0-1.57,1.27-2.84,2.84-2.84s2.84,1.27,2.84,2.84v2.69c0,1.57-1.27,2.84-2.84,2.84h-3.65
				v0.26c0,1.96-1.59,3.55-3.55,3.55c-1,0-1.9-0.42-2.54-1.09v15.27c0.64-0.67,1.54-1.09,2.54-1.09c1.96,0,3.55,1.59,3.55,3.55v0.26
				h3.65c1.57,0,2.84,1.27,2.84,2.84l0,2.69c0,1.57-1.27,2.84-2.84,2.84s-2.84-1.27-2.84-2.84v-0.55h-4.36
				c-0.11,0-0.21-0.02-0.31-0.03c-0.07,1.9-1.62,3.42-3.54,3.42c-1.96,0-3.55-1.59-3.55-3.55l0-1.69c0-0.35,0.06-0.68,0.15-1
				c0.01-0.04,0.02-0.07,0.03-0.11c0.12-0.35,0.29-0.67,0.5-0.96c-0.16,0.02-0.31,0.05-0.48,0.05c-1.96,0-3.55-1.59-3.55-3.55v-1.69
				c0-0.65,0.18-1.25,0.48-1.77c-0.89-0.19-1.65-0.72-2.15-1.45v8.02h-6.12l0-22.04h6.12l0,8.02c0.51-0.72,1.26-1.25,2.15-1.45
				c-0.3-0.52-0.48-1.12-0.48-1.77v-1.69c0-1.96,1.59-3.55,3.55-3.55c0.16,0,0.32,0.03,0.48,0.05c-0.21-0.29-0.38-0.62-0.5-0.96
				s-0.18-0.72-0.18-1.11v-1.69c0-1.96,1.59-3.55,3.55-3.55c1.91,0,3.46,1.52,3.54,3.42c0.1-0.01,0.21-0.03,0.31-0.03H97.75z"/>
			<path class="st3" d="M109.09,585.73v-0.55c0-1.57,1.27-2.84,2.84-2.84s2.84,1.27,2.84,2.84v2.69c0,1.57-1.27,2.84-2.84,2.84
				h-3.65v0.26c0,1.96-1.59,3.55-3.55,3.55c-1,0-1.9-0.42-2.54-1.09l0,15.27c0.64-0.67,1.54-1.09,2.54-1.09
				c1.96,0,3.55,1.59,3.55,3.55v0.26h3.65c1.57,0,2.84,1.27,2.84,2.84l0,2.69c0,1.57-1.27,2.84-2.84,2.84s-2.84-1.27-2.84-2.84
				v-0.55h-4.36c-0.11,0-0.21-0.02-0.31-0.03c-0.07,1.9-1.62,3.42-3.54,3.42c-1.96,0-3.55-1.59-3.55-3.55l0-1.69
				c0-0.35,0.06-0.68,0.15-1c0.01-0.04,0.02-0.07,0.03-0.11c0.12-0.35,0.29-0.67,0.5-0.96c-0.16,0.02-0.31,0.05-0.48,0.05
				c-1.96,0-3.55-1.59-3.55-3.55v-1.69c0-0.65,0.18-1.25,0.48-1.77c-0.89-0.19-1.65-0.72-2.15-1.45v8.02h-6.12l0-22.04h6.12l0,8.02
				c0.51-0.72,1.26-1.25,2.15-1.45c-0.3-0.52-0.48-1.12-0.48-1.77l0-1.69c0-1.96,1.59-3.55,3.55-3.55c0.16,0,0.32,0.03,0.48,0.05
				c-0.21-0.29-0.38-0.62-0.5-0.96c-0.12-0.35-0.18-0.72-0.18-1.11v-1.69c0-1.96,1.59-3.55,3.55-3.55c1.91,0,3.46,1.52,3.54,3.42
				c0.1-0.01,0.21-0.03,0.31-0.03H109.09z"/>
			<path class="st3" d="M75.07,721.81v-0.55c0-1.57,1.27-2.84,2.84-2.84s2.84,1.27,2.84,2.84v2.69c0,1.57-1.27,2.84-2.84,2.84h-3.65
				v0.26c0,1.96-1.59,3.55-3.55,3.55c-1,0-1.9-0.42-2.54-1.09v15.27c0.64-0.67,1.54-1.09,2.54-1.09c1.96,0,3.55,1.59,3.55,3.55v0.26
				h3.65c1.57,0,2.84,1.27,2.84,2.84v2.69c0,1.57-1.27,2.84-2.84,2.84s-2.84-1.27-2.84-2.84v-0.55h-4.36
				c-0.11,0-0.21-0.02-0.31-0.03c-0.07,1.9-1.62,3.42-3.54,3.42c-1.96,0-3.55-1.59-3.55-3.55v-1.69c0-0.35,0.06-0.68,0.15-1
				c0.01-0.04,0.02-0.07,0.03-0.11c0.12-0.35,0.29-0.67,0.5-0.96c-0.16,0.02-0.31,0.05-0.48,0.05c-1.96,0-3.55-1.59-3.55-3.55v-1.69
				c0-0.65,0.18-1.25,0.48-1.77c-1.6-0.34-2.8-1.77-2.8-3.47v-0.26v-1.43v-0.26c0-1.7,1.2-3.12,2.8-3.47
				c-0.3-0.52-0.48-1.12-0.48-1.77v-1.69c0-1.96,1.59-3.55,3.55-3.55c0.16,0,0.32,0.03,0.48,0.05c-0.21-0.29-0.38-0.62-0.5-0.96
				s-0.18-0.72-0.18-1.11v-1.69c0-1.96,1.59-3.55,3.55-3.55c1.91,0,3.46,1.52,3.54,3.42c0.1-0.01,0.21-0.03,0.31-0.03H75.07z"/>
			<path class="st3" d="M63.73,676.45v-0.55c0-1.57,1.27-2.84,2.84-2.84s2.84,1.27,2.84,2.84v2.69c0,1.57-1.27,2.84-2.84,2.84h-3.65
				v0.26c0,1.96-1.59,3.55-3.55,3.55c-1,0-1.9-0.42-2.54-1.09l0,15.27c0.64-0.67,1.54-1.09,2.54-1.09c1.96,0,3.55,1.59,3.55,3.55
				v0.26h3.65c1.57,0,2.84,1.27,2.84,2.84v2.69c0,1.57-1.27,2.84-2.84,2.84s-2.84-1.27-2.84-2.84v-0.55h-4.36
				c-0.11,0-0.21-0.02-0.31-0.03c-0.07,1.9-1.62,3.42-3.54,3.42c-1.96,0-3.55-1.59-3.55-3.55v-1.69c0-0.35,0.06-0.68,0.15-1
				c0.01-0.04,0.02-0.07,0.03-0.11c0.12-0.35,0.29-0.67,0.5-0.96c-0.16,0.02-0.31,0.05-0.48,0.05c-1.96,0-3.55-1.59-3.55-3.55
				l0-1.69c0-0.65,0.18-1.25,0.48-1.77c-1.6-0.34-2.8-1.77-2.8-3.47v-0.26v-1.43v-0.26c0-1.7,1.2-3.12,2.8-3.47
				c-0.3-0.52-0.48-1.12-0.48-1.77v-1.69c0-1.96,1.59-3.55,3.55-3.55c0.16,0,0.32,0.03,0.48,0.05c-0.21-0.29-0.38-0.62-0.5-0.96
				s-0.18-0.72-0.18-1.11v-1.69c0-1.96,1.59-3.55,3.55-3.55c1.91,0,3.46,1.52,3.54,3.42c0.1-0.01,0.21-0.03,0.31-0.03H63.73z"/>
			<path class="st3" d="M52.39,631.09v-0.55c0-1.57,1.27-2.84,2.84-2.84s2.84,1.27,2.84,2.84l0,2.69c0,1.57-1.27,2.84-2.84,2.84
				h-3.65v0.26c0,1.96-1.59,3.55-3.55,3.55c-1,0-1.9-0.42-2.54-1.09l0,15.27c0.64-0.67,1.54-1.09,2.54-1.09
				c1.96,0,3.55,1.59,3.55,3.55v0.26h3.65c1.57,0,2.84,1.27,2.84,2.84v2.69c0,1.57-1.27,2.84-2.84,2.84s-2.84-1.27-2.84-2.84v-0.55
				h-4.36c-0.11,0-0.21-0.02-0.31-0.03c-0.07,1.9-1.62,3.42-3.54,3.42c-1.96,0-3.55-1.59-3.55-3.55v-1.69c0-0.35,0.06-0.68,0.15-1
				c0.01-0.04,0.02-0.07,0.03-0.11c0.12-0.35,0.29-0.67,0.5-0.96c-0.16,0.02-0.31,0.05-0.48,0.05c-1.96,0-3.55-1.59-3.55-3.55v-1.69
				c0-0.65,0.18-1.25,0.48-1.77c-1.6-0.34-2.8-1.77-2.8-3.47v-0.26v-1.43v-0.26c0-1.7,1.2-3.12,2.8-3.47
				c-0.3-0.52-0.48-1.12-0.48-1.77v-1.69c0-1.96,1.59-3.55,3.55-3.55c0.16,0,0.32,0.03,0.48,0.05c-0.21-0.29-0.38-0.62-0.5-0.96
				s-0.18-0.72-0.18-1.11l0-1.69c0-1.96,1.59-3.55,3.55-3.55c1.91,0,3.46,1.52,3.54,3.42c0.1-0.01,0.21-0.03,0.31-0.03H52.39z"/>
			<path class="st3" d="M63.73,585.73v-0.55c0-1.57,1.27-2.84,2.84-2.84s2.84,1.27,2.84,2.84v2.69c0,1.57-1.27,2.84-2.84,2.84h-3.65
				v0.26c0,1.96-1.59,3.55-3.55,3.55c-1,0-1.9-0.42-2.54-1.09l0,15.27c0.64-0.67,1.54-1.09,2.54-1.09c1.96,0,3.55,1.59,3.55,3.55
				v0.26h3.65c1.57,0,2.84,1.27,2.84,2.84l0,2.69c0,1.57-1.27,2.84-2.84,2.84s-2.84-1.27-2.84-2.84v-0.55h-4.36
				c-0.11,0-0.21-0.02-0.31-0.03c-0.07,1.9-1.62,3.42-3.54,3.42c-1.96,0-3.55-1.59-3.55-3.55v-1.69c0-0.35,0.06-0.68,0.15-1
				c0.01-0.04,0.02-0.07,0.03-0.11c0.12-0.35,0.29-0.67,0.5-0.96c-0.16,0.02-0.31,0.05-0.48,0.05c-1.96,0-3.55-1.59-3.55-3.55v-1.69
				c0-0.65,0.18-1.25,0.48-1.77c-1.6-0.34-2.8-1.77-2.8-3.47v-0.26v-1.43v-0.26c0-1.7,1.2-3.12,2.8-3.47
				c-0.3-0.52-0.48-1.12-0.48-1.77v-1.69c0-1.96,1.59-3.55,3.55-3.55c0.16,0,0.32,0.03,0.48,0.05c-0.21-0.29-0.38-0.62-0.5-0.96
				c-0.12-0.35-0.18-0.72-0.18-1.11v-1.69c0-1.96,1.59-3.55,3.55-3.55c1.91,0,3.46,1.52,3.54,3.42c0.1-0.01,0.21-0.03,0.31-0.03
				H63.73z"/>
			<circle class="st3" cx="212.82" cy="690.36" r="6.52"/>
			<circle class="st3" cx="204.82" cy="642.56" r="6.52"/>
			<circle class="st3" cx="168.63" cy="737.15" r="6.52"/>
			<circle class="st3" cx="157.29" cy="691.79" r="6.52"/>
			<circle class="st3" cx="145.95" cy="646.43" r="6.52"/>
			<circle class="st3" cx="157.29" cy="601.07" r="6.52"/>
			<circle class="st3" cx="123.27" cy="737.15" r="6.52"/>
			<circle class="st3" cx="111.93" cy="691.79" r="6.52"/>
			<circle class="st3" cx="100.59" cy="646.43" r="6.52"/>
			<circle class="st3" cx="111.93" cy="601.07" r="6.52"/>
			<circle class="st3" cx="123.27" cy="555.71" r="6.52"/>
			<circle class="st3" cx="77.91" cy="737.15" r="6.52"/>
			<circle class="st3" cx="66.57" cy="691.79" r="6.52"/>
			<circle class="st3" cx="55.23" cy="646.43" r="6.52"/>
			<circle class="st3" cx="66.57" cy="601.07" r="6.52"/>
			
				<ellipse transform="matrix(0.9239 -0.3827 0.3827 0.9239 -264.7211 142.7965)" class="st3" cx="226.58" cy="736.82" rx="6.52" ry="6.52"/>
			<circle class="st3" cx="245.91" cy="781.26" r="6.52"/>
			<path class="st3" d="M239.78,801.41l-0.77-1.51c-0.16-0.31-0.26-0.64-0.32-0.96c-0.01-0.04-0.02-0.07-0.02-0.11
				c-0.05-0.36-0.05-0.73,0.01-1.09c-0.13,0.09-0.26,0.18-0.4,0.26c-1.75,0.89-3.89,0.2-4.78-1.55l-0.77-1.51
				c-0.29-0.58-0.4-1.19-0.37-1.79c-1.58,0.42-3.3-0.3-4.07-1.82l-0.12-0.24l-0.65-1.27l-0.12-0.24c-0.77-1.52-0.35-3.33,0.92-4.36
				c-0.51-0.33-0.94-0.78-1.23-1.35l-0.77-1.51c-0.89-1.75-0.2-3.89,1.55-4.78c0.15-0.07,0.3-0.12,0.45-0.17
				c-0.32-0.16-0.62-0.38-0.88-0.63c-0.26-0.26-0.49-0.56-0.66-0.91l-0.77-1.51c-0.89-1.75-0.2-3.89,1.55-4.78
				c1.71-0.87,3.78-0.22,4.7,1.44c0.09-0.06,0.17-0.12,0.26-0.17l3.89-1.98l-0.25-0.49c-0.69-1.35-0.18-2.98,1.11-3.73l-4.35-10.24
				c-1.46,0.5-3.06-0.25-3.59-1.71l-0.19-0.51l-4.1,1.49c-0.1,0.04-0.2,0.05-0.3,0.08c0.58,1.81-0.36,3.76-2.16,4.42
				c-1.84,0.67-3.88-0.28-4.55-2.12l-0.58-1.59c-0.12-0.33-0.18-0.66-0.2-0.99c0-0.04-0.01-0.07-0.01-0.11
				c-0.01-0.37,0.04-0.73,0.14-1.08c-0.14,0.07-0.28,0.15-0.43,0.21c-1.84,0.67-3.88-0.28-4.55-2.12l-0.58-1.59
				c-0.22-0.61-0.25-1.23-0.15-1.83c-1.62,0.22-3.24-0.7-3.82-2.3l-0.09-0.25l-0.35-0.97l-5.14,1.87l-7.54-20.71l5.75-2.09
				l6.62,18.18c0.23-0.85,0.76-1.6,1.53-2.08c-0.46-0.39-0.84-0.89-1.06-1.5l-0.58-1.59c-0.67-1.84,0.28-3.88,2.12-4.55
				c0.15-0.06,0.31-0.08,0.46-0.12c-0.3-0.2-0.57-0.45-0.8-0.74c-0.23-0.29-0.42-0.61-0.55-0.98l-0.58-1.59
				c-0.67-1.84,0.28-3.88,2.12-4.55c1.8-0.65,3.78,0.24,4.49,2c0.1-0.04,0.18-0.1,0.28-0.14l4.1-1.49l-0.19-0.51
				c-0.52-1.42,0.18-2.98,1.56-3.57l-3.07-10.69c-1.51,0.32-3-0.62-3.35-2.13l-0.12-0.53l-4.25,0.98c-0.1,0.02-0.21,0.03-0.31,0.04
				c0.36,1.86-0.81,3.69-2.68,4.12c-1.91,0.44-3.82-0.75-4.26-2.66l-0.38-1.65c-0.08-0.34-0.1-0.68-0.08-1.01c0-0.04,0-0.07,0-0.11
				c0.04-0.37,0.13-0.72,0.27-1.05c-0.15,0.06-0.29,0.12-0.45,0.15c-1.91,0.44-3.82-0.75-4.26-2.66l-0.38-1.65
				c-0.15-0.63-0.1-1.25,0.07-1.83c-0.91,0.01-1.76-0.33-2.41-0.92l1.8,7.81l-5.97,1.38l-4.96-21.48l5.97-1.38l1.8,7.81
				c0.33-0.81,0.95-1.5,1.77-1.88c-0.41-0.44-0.72-0.98-0.87-1.61l-0.38-1.65c-0.44-1.91,0.75-3.82,2.66-4.26
				c0.16-0.04,0.32-0.05,0.47-0.06c-0.27-0.24-0.51-0.51-0.7-0.83c-0.19-0.31-0.34-0.66-0.43-1.04l-0.38-1.65
				c-0.44-1.91,0.75-3.82,2.66-4.26c1.87-0.43,3.72,0.7,4.22,2.53c0.1-0.03,0.19-0.08,0.3-0.1l4.25-0.98l-0.12-0.53
				c-0.34-1.48,0.55-2.94,1.99-3.36l-1.74-10.98c-1.54,0.13-2.91-0.98-3.07-2.53l-0.06-0.54l-4.34,0.46c-0.11,0.01-0.21,0-0.31,0
				c0.13,1.89-1.26,3.57-3.16,3.77c-1.95,0.21-3.7-1.21-3.9-3.16l-0.18-1.68c-0.04-0.35-0.01-0.69,0.05-1.01
				c0.01-0.04,0.01-0.07,0.02-0.11c0.08-0.36,0.21-0.7,0.39-1.01c-0.15,0.04-0.31,0.08-0.47,0.1c-1.95,0.21-3.7-1.21-3.9-3.16
				l-0.18-1.68c-0.07-0.64,0.05-1.26,0.3-1.81c-0.9-0.1-1.71-0.54-2.28-1.2l0.84,7.97l-6.09,0.64l-2.3-21.92l6.09-0.64l0.84,7.97
				c0.43-0.77,1.12-1.37,1.98-1.65c-0.35-0.49-0.6-1.06-0.67-1.71l-0.18-1.68c-0.21-1.95,1.21-3.7,3.16-3.9
				c0.16-0.02,0.32-0.01,0.48,0c-0.24-0.27-0.44-0.57-0.6-0.91c-0.15-0.33-0.26-0.7-0.3-1.08l-0.18-1.68
				c-0.21-1.95,1.21-3.7,3.16-3.9c1.9-0.2,3.6,1.15,3.88,3.03c0.1-0.02,0.2-0.05,0.31-0.06l4.34-0.46l-0.06-0.54
				c-0.16-1.56,0.97-2.95,2.53-3.12c1.56-0.16,2.95,0.97,3.12,2.53l0.28,2.68c0.16,1.56-0.97,2.95-2.53,3.12l-3.63,0.38l0.03,0.26
				c0.21,1.95-1.21,3.7-3.16,3.9c-1,0.1-1.93-0.22-2.64-0.82l1.6,15.19c0.57-0.73,1.42-1.25,2.41-1.35c1.95-0.21,3.7,1.21,3.9,3.16
				l0.03,0.26l3.63-0.38c1.38-0.15,2.63,0.73,3.01,2.02l19.29-3.06l3.55,22.4l-19.09,3.02c0.13,1.39-0.77,2.7-2.17,3.03l-3.56,0.82
				l0.06,0.25c0.44,1.91-0.75,3.82-2.66,4.26c-0.98,0.23-1.94,0.02-2.72-0.49l3.44,14.88c0.48-0.8,1.25-1.41,2.23-1.63
				c1.91-0.44,3.82,0.75,4.26,2.66l0.06,0.25l3.56-0.82c1.35-0.31,2.7,0.4,3.24,1.63l18.77-5.38l6.25,21.8l-18.57,5.33
				c0.3,1.37-0.44,2.78-1.79,3.27l-3.43,1.25l0.09,0.24c0.67,1.84-0.28,3.88-2.12,4.55c-0.94,0.34-1.93,0.25-2.76-0.16l5.22,14.35
				c0.38-0.85,1.07-1.55,2.01-1.89c1.84-0.67,3.88,0.28,4.55,2.12l0.09,0.24l3.43-1.25c1.31-0.48,2.73,0.07,3.41,1.23l17.97-7.63
				l8.86,20.87l-17.79,7.55c0.46,1.32-0.1,2.81-1.38,3.46l-3.25,1.66l0.12,0.23c0.89,1.75,0.2,3.89-1.55,4.78
				c-0.89,0.45-1.88,0.49-2.76,0.18l6.93,13.61c0.27-0.89,0.88-1.67,1.77-2.12c1.75-0.89,3.89-0.2,4.78,1.55l0.12,0.23l3.25-1.66
				c1.4-0.71,3.1-0.16,3.82,1.24l1.22,2.4c0.71,1.4,0.16,3.1-1.24,3.82s-3.1,0.16-3.82-1.24l-0.25-0.49l-3.89,1.98
				c-0.1,0.05-0.2,0.07-0.29,0.11c0.8,1.72,0.1,3.78-1.6,4.65C242.81,803.85,240.67,803.16,239.78,801.41z"/>
			<path class="st3" d="M97.53,578.07l0-19.66H83.84c-1.03,2.25-3.29,3.82-5.93,3.82c-3.6,0-6.52-2.92-6.52-6.52
				c0-3.6,2.92-6.52,6.52-6.52c0.69,0,1.36,0.11,1.98,0.31v-4.96c-0.51,0.5-1.21,0.81-1.98,0.81h-3.65v0.26
				c0,1.96-1.59,3.55-3.55,3.55c-1,0-1.9-0.42-2.54-1.09l0,15.27c0.64-0.67,1.54-1.09,2.54-1.09c1.96,0,3.55,1.59,3.55,3.55v0.26
				h3.65c1.57,0,2.84,1.27,2.84,2.84v2.69c0,1.57-1.27,2.84-2.84,2.84s-2.84-1.27-2.84-2.84v-0.55h-4.36
				c-0.11,0-0.21-0.02-0.31-0.03c-0.07,1.9-1.62,3.41-3.54,3.41c-1.96,0-3.55-1.59-3.55-3.55v-1.69c0-0.35,0.06-0.68,0.15-1
				c0.01-0.04,0.02-0.07,0.03-0.11c0.12-0.35,0.29-0.67,0.5-0.96c-0.16,0.02-0.31,0.05-0.48,0.05c-1.96,0-3.55-1.59-3.55-3.55v-1.69
				c0-0.65,0.18-1.25,0.48-1.77c-1.6-0.34-2.8-1.77-2.8-3.47v-0.26l0-1.43v-0.26c0-1.7,1.2-3.12,2.8-3.47
				c-0.3-0.52-0.48-1.12-0.48-1.77v-1.69c0-1.96,1.59-3.55,3.55-3.55c0.16,0,0.32,0.03,0.48,0.05c-0.21-0.29-0.38-0.62-0.5-0.96
				c-0.12-0.35-0.18-0.72-0.18-1.11v-1.69c0-1.96,1.59-3.55,3.55-3.55c1.91,0,3.46,1.52,3.54,3.41c0.1-0.01,0.21-0.03,0.31-0.03
				h4.36v-0.55c0-1.57,1.27-2.84,2.84-2.84c0.77,0,1.47,0.31,1.98,0.81v-2.07h18.52h4.16h3.23v10.31c0.61-1.07,1.75-1.79,3.07-1.79
				c0.16,0,0.32,0.03,0.48,0.05c-0.21-0.29-0.38-0.62-0.5-0.96c-0.12-0.35-0.18-0.72-0.18-1.11v-1.69c0-1.96,1.59-3.55,3.55-3.55
				c1.91,0,3.46,1.52,3.54,3.41c0.1-0.01,0.21-0.03,0.31-0.03h4.36v-0.55c0-1.57,1.27-2.84,2.84-2.84s2.84,1.27,2.84,2.84v2.69
				c0,1.57-1.27,2.84-2.84,2.84h-3.65v0.26c0,1.96-1.59,3.55-3.55,3.55c-1,0-1.9-0.42-2.54-1.09l0,15.27
				c0.64-0.67,1.54-1.09,2.54-1.09c1.96,0,3.55,1.59,3.55,3.55v0.26h3.65c1.57,0,2.84,1.27,2.84,2.84v2.69
				c0,1.57-1.27,2.84-2.84,2.84s-2.84-1.27-2.84-2.84v-0.55h-4.36c-0.11,0-0.21-0.02-0.31-0.03c-0.07,1.9-1.62,3.41-3.54,3.41
				c-1.96,0-3.55-1.59-3.55-3.55v-1.69c0-0.35,0.06-0.68,0.15-1c0.01-0.04,0.02-0.07,0.03-0.11c0.12-0.35,0.29-0.67,0.5-0.96
				c-0.16,0.02-0.31,0.05-0.48,0.05c-1.96,0-3.55-1.59-3.55-3.55v-1.69c0-0.65,0.18-1.25,0.48-1.77c-0.89-0.19-1.65-0.72-2.15-1.45
				l0,19.36H97.53z"/>
		</g>
		<g id="ネジ穴_00000027603356205155638010000012785030160810983827_">
			<circle class="st3" cx="143.07" cy="768.84" r="2.83"/>
			<circle class="st3" cx="196.35" cy="807.72" r="2.83"/>
			<circle class="st2" cx="28.3" cy="619.5" r="2.83"/>
			<circle class="st2" cx="28.3" cy="673.29" r="2.83"/>
			<circle class="st2" cx="50.98" cy="528.78" r="2.83"/>
			<circle class="st2" cx="195.56" cy="528.78" r="2.83"/>
			<circle class="st2" cx="228.78" cy="612.96" r="2.83"/>
			<circle class="st2" cx="282.38" cy="792.86" r="2.83"/>
			<circle class="st2" cx="244.24" cy="812.33" r="2.83"/>
			<circle class="st2" cx="39.64" cy="759.58" r="2.83"/>
		</g>
	</g>
</g>
<g id="彫刻">
</g>
<g id="注意">
	<g>
	</g>
</g>
</svg>
